<?xml version="1.0" encoding="utf-8"?>
<!-- Generator: Adobe Illustrator 20.0.0, SVG Export Plug-In . SVG Version: 6.00 Build 0)  -->
<svg version="1.1" id="Capa_1" xmlns="http://www.w3.org/2000/svg" xmlns:xlink="http://www.w3.org/1999/xlink" x="0px" y="0px"
	 viewBox="0 0 100.7 118.9" style="enable-background:new 0 0 100.7 118.9;" xml:space="preserve">
<style type="text/css">
	.st0{fill:#D0F3DF;}
</style>
<path class="st0" d="M7.3,38.5c-4.1,0-7.3,3.3-7.3,7.3l0,30.7c0,4.1,3.3,7.3,7.3,7.3c4.1,0,7.3-3.3,7.3-7.3V45.8
	C14.7,41.8,11.4,38.5,7.3,38.5 M66.5,10.9l5.1-9.4c0.3-0.5,0.1-1.1-0.4-1.4c-0.5-0.3-1.1-0.1-1.4,0.4L64.7,10C60.3,8,55.5,7,50.3,7
	C45.2,7,40.3,8,36,10l-5.2-9.4c-0.3-0.5-0.9-0.7-1.4-0.4C28.9,0.4,28.7,1,29,1.5l5.1,9.3c-10.1,5.2-16.9,15.1-16.9,26.4l66.1,0
	C83.4,25.9,76.6,16.1,66.5,10.9 M35.3,25.3c-1.5,0-2.8-1.2-2.8-2.8c0-1.5,1.2-2.8,2.8-2.8c1.5,0,2.8,1.3,2.8,2.8
	C38.1,24.1,36.8,25.3,35.3,25.3 M65.4,25.3c-1.5,0-2.8-1.2-2.8-2.8c0-1.5,1.2-2.8,2.8-2.8c1.5,0,2.8,1.3,2.8,2.8
	C68.2,24.1,66.9,25.3,65.4,25.3 M17.5,39.9l0,47.6c0,4.3,3.5,7.8,7.8,7.8l5.3,0l0,16.3c0,4.1,3.3,7.3,7.3,7.3c4.1,0,7.3-3.3,7.3-7.3
	l0-16.3l9.9,0l0,16.3c0,4,3.3,7.3,7.3,7.3c4.1,0,7.3-3.3,7.3-7.3l0-16.3l5.4,0c4.3,0,7.8-3.5,7.8-7.8l0-47.6L17.5,39.9L17.5,39.9z
	 M100.7,45.8c0-4.1-3.3-7.3-7.3-7.3c-4.1,0-7.3,3.3-7.3,7.3l0,30.7c0,4.1,3.3,7.3,7.3,7.3c4.1,0,7.3-3.3,7.3-7.3
	C100.7,76.5,100.7,45.8,100.7,45.8z"/>
</svg>
