<?xml version="1.0" encoding="utf-8"?>
<!-- Generator: Adobe Illustrator 20.0.0, SVG Export Plug-In . SVG Version: 6.00 Build 0)  -->
<svg version="1.1"
	 id="Layer_1" inkscape:version="0.47 r22583" sodipodi:docname="c2-cog-logo-01.svg" xmlns:cc="http://creativecommons.org/ns#" xmlns:dc="http://purl.org/dc/elements/1.1/" xmlns:inkscape="http://www.inkscape.org/namespaces/inkscape" xmlns:rdf="http://www.w3.org/1999/02/22-rdf-syntax-ns#" xmlns:sodipodi="http://sodipodi.sourceforge.net/DTD/sodipodi-0.dtd" xmlns:svg="http://www.w3.org/2000/svg"
	 xmlns="http://www.w3.org/2000/svg" xmlns:xlink="http://www.w3.org/1999/xlink" x="0px" y="0px" viewBox="0 0 224.2 226.8"
	 style="enable-background:new 0 0 224.2 226.8;" xml:space="preserve">
<style type="text/css">
	.st0{fill:#D0F3DF;}
</style>
<defs>
	
	
		<inkscape:perspective  id="perspective11" inkscape:persp3d-origin="141.5 : 94.333333 : 1" inkscape:vp_x="0 : 141.5 : 1" inkscape:vp_y="0 : 1000 : 0" inkscape:vp_z="283 : 141.5 : 1" sodipodi:type="inkscape:persp3d">
		</inkscape:perspective>
</defs>
<sodipodi:namedview  bordercolor="#666666" borderopacity="1" gridtolerance="10" guidetolerance="10" id="namedview5" inkscape:current-layer="Layer_1" inkscape:cx="141.5" inkscape:cy="141.5" inkscape:pageopacity="0" inkscape:pageshadow="2" inkscape:window-height="1028" inkscape:window-maximized="1" inkscape:window-width="1920" inkscape:window-x="-8" inkscape:window-y="-8" inkscape:zoom="0.83392226" objecttolerance="10" pagecolor="#ffffff" showgrid="false">
	</sodipodi:namedview>
<g>
	<path class="st0" d="M186.2,188.8l-46-46c-2.3-2.2-5.4-2.3-8-0.7c-6,4.5-13.4,7.1-21.4,7.1c-19.8,0-35.9-16.1-35.9-35.9
		c0-19.8,16.1-35.9,35.9-35.9c8,0,15.3,2.6,21.3,7c2.4,1.7,5.7,1.6,8-0.4l46.4-46.4c2.3-2.4,2.4-6.5,0-8.9c-8-7.2-17-13.2-26.8-17.9
		c-3.2-1.4-6.8,0-8.3,3.1c-0.2,0.4-0.3,0.9-0.5,1.3c-2.8,8.2-11.4,13-20.1,11c-8.6-2-14.2-10.1-13.3-18.7c0,0,0.1-1.3,0.1-1.4
		c0-3.3-2.5-6-5.7-6.4C94.1-0.1,76.9,3.7,61.1,11.4c-3,1.6-4.2,5.3-2.7,8.4c0.1,0.1,0.7,1.2,0.7,1.2c4.6,7.3,3.1,17.1-3.9,22.6
		c-6.9,5.5-16.8,4.8-22.9-1.3c0,0-0.9-0.9-1-1c-2.6-2.1-6.3-1.8-8.6,0.5C11.8,55.4,4,71.3,0.1,88.8c-0.6,3.3,1.6,6.6,4.9,7.3
		c0.1,0,1.4,0.2,1.4,0.2c8.6,1,15.3,8.3,15.3,17.1S15,129.5,6.4,130.5c0,0-1.3,0.2-1.4,0.2c-3.3,0.8-5.5,4-4.9,7.3
		c3.9,17.4,11.7,33.4,22.6,46.8c2.3,2.3,6,2.6,8.6,0.5c0.1-0.1,1-1,1-1c6.1-6.1,16-6.8,22.9-1.3s8.5,15.3,3.9,22.6
		c0,0-0.7,1.1-0.7,1.2c-1.5,3.1-0.3,6.8,2.7,8.4c15,7.3,31.9,11.5,49.7,11.5c0.3,0,0.6,0,1,0c3.2-0.3,5.7-3.1,5.7-6.4
		c0-0.2-0.1-1.4-0.1-1.4c-0.9-8.6,4.7-16.7,13.3-18.7c8.6-2,17.2,2.9,20.1,11c0,0,0.4,1.2,0.5,1.3c1.5,3.1,5.2,4.5,8.4,3.1
		c9.5-4.5,18.3-10.3,26.1-17.2l0.7-0.6c1.9-2,2.4-5,1-7.5C187.1,189.7,186.7,189.3,186.2,188.8z"/>
	<path class="st0" d="M221.3,87.8c-0.8-3.4-4.2-5.5-7.7-4.7c-0.2,0-1.3,0.4-1.4,0.4c-8.2,2.8-17.3-0.8-21.1-8.8
		c-3.8-8-1-17.4,6.3-22c0,0,1.1-0.7,1.2-0.8c2.6-2.1,3.2-5.8,1.4-8.6c-0.3-0.3-0.5-0.7-0.8-1c-1.3-1.2-3.2-1.2-4.5,0L145,92
		c-1.8,1.9-2.3,4.6-1.3,6.9c1.9,4.4,3,9.3,3,14.4c0,5.1-1,9.9-2.9,14.2c-1.1,2.4-0.6,5.2,1.2,7.1l49.4,49.4c1.3,1.3,3.1,1.6,4.5,0.5
		c0.3-0.3,0.8-0.8,1-1.2c1.9-2.7,1.3-6.5-1.4-8.6c-0.4-0.3-0.8-0.5-1.2-0.8c-7.3-4.6-10.1-14.1-6.3-22c3.8-8,13-11.6,21.1-8.8
		c0,0,1.2,0.4,1.4,0.4c3.4,0.8,6.9-1.3,7.7-4.8c1.9-8.2,2.9-16.8,2.9-25.5C224.2,104.6,223.2,96,221.3,87.8z M192.9,133.1h-29.1
		v-5.9c3.7-3.4,7.5-6.8,11.1-10.4c3.7-3.6,9.6-9.9,6.9-15.4c-1.2-2.3-3.6-3-6-3c-3.2,0-6.3,1.5-8.8,3.4l-2.7-7
		c3.7-2.9,8.8-4.3,13.4-4.3c5.7,0,11.2,2.1,13.5,7.9c2.8,7.2-0.9,14-5.7,19.2c-2.5,2.7-5.2,4.9-8,7.3v0.1h15.5V133.1z"/>
</g>
</svg>
