<?xml version="1.0" encoding="utf-8"?>
<!-- Generator: Adobe Illustrator 20.0.0, SVG Export Plug-In . SVG Version: 6.00 Build 0)  -->
<svg version="1.1" id="Capa_1" xmlns="http://www.w3.org/2000/svg" xmlns:xlink="http://www.w3.org/1999/xlink" x="0px" y="0px"
	 viewBox="0 0 2500 2393" style="enable-background:new 0 0 2500 2393;" xml:space="preserve">
<style type="text/css">
	.st0{fill:#D0F3DF;}
</style>
<path class="st0" d="M2272.7,2386.6h-404.8l28.4-340.9h-198.9l-28.4,340.9H831l-28.4-340.9H603.7l28.4,340.9H227.3L0,909.3
	L568.2,0.2h1363.6L2500,909.3L2272.7,2386.6z M1818.2,454.8h-365.3l24.4,170.5h-454.6l24.4-170.5H681.8L454.5,909.3l113.6,909.1
	h1363.6l113.6-909.1L1818.2,454.8L1818.2,454.8z M1619.3,1516.7c-31.4,0-56.8-94.6-56.8-211.4c0-116.7,25.4-211.4,56.8-211.4
	c31.4,0,56.8,94.6,56.8,211.4C1676.1,1422.1,1650.7,1516.7,1619.3,1516.7z M902,1534.3c-31.4,0-56.8-94.6-56.8-211.4
	c0-116.7,25.4-211.4,56.8-211.4s56.8,94.6,56.8,211.4C958.8,1439.7,933.4,1534.3,902,1534.3z"/>
</svg>
