<?xml version="1.0" encoding="utf-8"?>
<!-- Generator: Adobe Illustrator 20.0.0, SVG Export Plug-In . SVG Version: 6.00 Build 0)  -->
<svg version="1.1" id="Capa_1" xmlns="http://www.w3.org/2000/svg" xmlns:xlink="http://www.w3.org/1999/xlink" x="0px" y="0px"
	 viewBox="0 0 118.1711807 132.6855011" enable-background="new 0 0 118.1711807 132.6855011" xml:space="preserve">
<g>
	<path fill="#D0F3DF" d="M58.1066856,0h0.0949936l0.0847054,0.0010288h0.4849052l0.0847054,0.0034294h0.0102882l0.0847054,0.0034293
		h0.0092583l0.0857353,0.0034294h0.0068588l0.0857315,0.0034293h0.0102882l0.0823059,0.0034294h0.0102882l0.0823021,0.0034293
		h0.0068588l0.0857353,0.0034294h0.0102882l0.0857315,0.0068586h0.0102882l0.0823059,0.0068587h0.006855l0.0823059,0.0068587
		h0.0102882l0.0857315,0.0068587h0.0068588l0.0823059,0.0068587h0.0102882l0.0857315,0.0068587h0.0102882l0.0857353,0.0068587
		h0.0102882l0.0857315,0.0068587h0.0102882l0.0823059,0.0068587h0.0102882l0.0823021,0.0068587h0.0102882l0.0857353,0.0068587
		h0.0102882l0.0857315,0.010288h0.0102882l0.0857353,0.010288h0.006855l0.0823059,0.010288h0.0102882l0.0823021,0.010288h0.0102882
		l0.0857353,0.010288h0.0102882l0.0857315,0.010288h0.0068588l0.0823059,0.010288h0.0102882l0.0857315,0.010288h0.0102882
		l0.0823059,0.0137174l0.0102882,0.0034294l0.0857315,0.0137173h0.0102882l0.0823059,0.0137174h0.0068588l0.0857315,0.0137174
		h0.0102882l0.0823059,0.0137173h0.0102882l0.0823021,0.0137174h0.0068588l0.0857315,0.0137174h0.0102882l0.0823059,0.0137174
		l0.0102882,0.0034294l0.0823021,0.0137174l0.0102882,0.0034293l0.0823059,0.0171467h0.0102882l0.0823021,0.0137174h0.0102882
		l0.0823059,0.0171467h0.0102882l0.0857315,0.0171466h0.0068588l0.0823059,0.0171467h0.0102882l0.0823021,0.0171467h0.0068588
		l0.0857353,0.0171466l0.0102882,0.0034294l0.0857315,0.0171467h0.0068588l0.0823059,0.020576l0.0102882,0.0034294
		l0.0823021,0.020576h0.0102882l0.0857315,0.020576l0.0068588,0.0034293l0.0823059,0.0171467l0.0102882,0.0034293
		l0.0823021,0.0171467l0.0068588,0.0034294l0.0823059,0.020576h0.0102882l0.0823021,0.020576l0.0102882,0.0034293
		l0.0823059,0.0205761l0.0068588,0.0034293l0.0857315,0.020576l0.0068588,0.0034293l0.0823059,0.0205761l0.0102882,0.0034293
		l0.0823059,0.020576h0.0068588l0.0822983,0.0240054h0.0102921l0.0857315,0.020576L63.98423,0.7486242l0.0822983,0.020576h0.0102921
		l0.0823059,0.0240054l0.0102844,0.0034293l0.0823059,0.0240054l0.0102844,0.0034293l0.0823059,0.0240053l0.0102844,0.0034294
		l0.0823059,0.0240053l0.0068588,0.0034294l0.0823059,0.0240053l0.0102844,0.0034294l0.0823059,0.0240053l0.0102921,0.0034294
		l0.0822983,0.0240053l0.0102921,0.0034293l0.0823059,0.0274347l0.0068588,0.0034294l0.0822983,0.0274347h0.0102921
		l0.0823059,0.0274347h0.0102844l0.0823059,0.0274346l0.0102844,0.0034294l0.0823059,0.0274347l0.0102921,0.0034293
		l0.0822983,0.0274347l0.0068588,0.0034293l0.0823059,0.0274347l0.0102921,0.0034294l0.0822983,0.0274347l0.0068588,0.0034293
		l0.0823059,0.0274347l0.0068588,0.0034293l0.0788727,0.0274347l0.0102921,0.0034293l0.0788727,0.0274347l0.0102921,0.0034294
		l0.0788727,0.030864l0.0102844,0.0034293l0.0823059,0.0308641l0.0102844,0.0034293l0.0788803,0.030864l0.0068588,0.0034294
		l0.0822983,0.0274346l0.0068588,0.0034294l0.0823059,0.030864l0.0102921,0.0034293l0.0822983,0.0308641l0.0102921,0.0034293
		l0.0788727,0.030864l0.0102921,0.0034294l0.0788727,0.0342933l0.0068588,0.0034294l0.0823059,0.030864l0.0102844,0.0034293
		l0.0788727,0.0342934l0.0102921,0.0034293l0.0823059,0.0342934l0.0102844,0.0034293l0.0823059,0.0342934l0.0068588,0.0034293
		l0.0823059,0.0342934L66.8888779,1.75342l0.0788727,0.0342934l0.0068588,0.0034292l0.0788727,0.0342934l0.0068588,0.0034294
		l0.0823059,0.0342932l0.0068588,0.0034294l0.0788727,0.0342934l0.0102921,0.0034294L67.317543,1.938604l0.0102844,0.0034294
		l0.0788803,0.0342934l0.0068588,0.0034294l0.0788727,0.0377227l0.0102844,0.0034294l0.0788803,0.0377226l0.0102844,0.0034294
		l0.0788727,0.0377226l0.0068588,0.0034294l0.0788803,0.0377228l0.0068588,0.0034292l0.0788727,0.0377228l0.0102844,0.0034294
		l0.0788803,0.0377226l0.0102844,0.0034294l0.0788727,0.0377226l0.0102921,0.0034294l0.0788727,0.0377226l0.0068588,0.0034294
		l0.0788727,0.041152l0.0068588,0.0068588L68.281189,2.394706l0.0068588,0.0034294l0.0754395,0.041152l0.0102921,0.0034294
		l0.0788727,0.0377226l0.0068588,0.0034294l0.0788727,0.041152l0.0102921,0.0034294l0.0754471,0.041152l0.0102844,0.0068586
		l0.0788727,0.041152l0.0102921,0.0034294l0.0788727,0.041152l0.0068588,0.0034294l0.0754471,0.041152l0.0102844,0.0068586
		l0.0788803,0.0411522l0.0068588,0.0068586l0.0754395,0.0445814l0.0068588,0.0068586l0.0754471,0.0445814l0.0102921,0.0034294
		l0.0754395,0.0445814l0.0068588,0.0034292l0.0754471,0.0445814l0.0068588,0.0068588l0.0754471,0.0445812l0.0102844,0.0068588
		l0.0720215,0.0445814h0.0068588l38.8543854,22.8290958l0.065155,0.0377235l0.0068588,0.0068588l0.065155,0.0377216
		l0.0102921,0.0034294l0.0617294,0.041153l0.0068588,0.0068588l0.0617294,0.0377216l0.0068588,0.0068588l0.0617218,0.0377235
		l0.0068588,0.0034294l0.0617294,0.0377216l0.0068588,0.0034294l0.0617294,0.0377235l0.0068588,0.0034294l0.0617294,0.0377216
		l0.0102844,0.0034294l0.0617294,0.041153l0.0068588,0.0034294l0.0617294,0.041151l0.0102844,0.0034294l0.0617294,0.0377235
		l0.0068588,0.0034294l0.0617294,0.041151l0.0068588,0.0068588l0.0617294,0.041153l0.0068588,0.0068569l0.0582962,0.0377235
		l0.0102921,0.0034294l0.0617218,0.041151l0.0068588,0.0034294l0.0617294,0.041153l0.0068588,0.0034294l0.0582962,0.041151
		l0.0068588,0.0034294l0.0583038,0.041153l0.0068588,0.0034294l0.0582962,0.041151l0.0068588,0.0068588l0.0582962,0.041153
		l0.0068588,0.0034294l0.0583038,0.0445805l0.0102844,0.0068588l0.0582962,0.041153l0.0068588,0.0034294l0.0583038,0.041151
		l0.0068588,0.0034294l0.0582962,0.041153l0.0068588,0.0068588l0.0582962,0.041151l0.0068588,0.0034294l0.0583038,0.041153
		l0.0068588,0.0068588l0.0582962,0.041151l0.0068588,0.0068588l0.0582962,0.0445805l0.0102921,0.0068588l0.0548706,0.0445824
		l0.0102844,0.0068588l0.0582962,0.0445805l0.0102921,0.0034294l0.0582962,0.0445824l0.0068588,0.0068588l0.0583038,0.0445805
		l0.0068588,0.0068588l0.054863,0.0445824l0.0102921,0.0068569l0.0582962,0.0480118l0.0102921,0.0102882l0.1097336,0.0891628
		l0.0137177,0.0102882l0.1097412,0.0925922l0.0137177,0.0102863l0.1131668,0.0925922l0.0137177,0.0102882l0.1131668,0.0925922
		l0.0137177,0.0102882l0.1097412,0.0925922l0.0137177,0.0137177l0.1097412,0.0925922l0.01371,0.0102882l0.1063156,0.0960197
		l0.0137177,0.0102882l0.106308,0.0960217l0.0137177,0.0102882l0.106308,0.0994511l0.0137177,0.0102882l0.1028824,0.0960217
		l0.0137177,0.0102882l0.106308,0.0994492l0.0137177,0.0137177l0.1028748,0.0994511l0.0137177,0.0137177l0.1028824,0.0994511
		l0.0137177,0.0137177l0.0994492,0.0994511l0.0137177,0.0137157l0.0994492,0.1028805l0.0137177,0.0137177l0.0994568,0.1028805
		l0.0102844,0.0137177l0.0994492,0.1028786l0.0137177,0.0137177l0.0960236,0.1028805l0.0137177,0.0137177l0.0960236,0.1028805
		l0.0137177,0.0137177l0.0960159,0.1028786l0.0137177,0.0137177l0.0960236,0.1063099l0.0137177,0.0137177l0.0925903,0.1097393
		l0.0102921,0.0137157l0.0960159,0.1063099l0.0137177,0.0137177l0.092598,0.1097393l0.0137177,0.0137177l0.0925903,0.1097374
		l0.0102844,0.0137177l0.092598,0.1097393l0.01371,0.0137177l0.0891647,0.1097374l0.0102921,0.0137177l0.0891571,0.1097393
		l0.0137177,0.0137177l0.0891647,0.1131687l0.0102921,0.0137157l0.0857315,0.1131687l0.0102844,0.0137177l0.0857391,0.1131687
		l0.0102844,0.0137157l0.0857315,0.1131687l0.0102921,0.0171471l0.0857315,0.1165981l0.0102844,0.0137157l0.0857391,0.1131687
		l0.0102844,0.0171471l0.0823059,0.1165981l0.0102844,0.0137157l0.0823059,0.1165981l0.0102921,0.0137177l0.0822983,0.1165962
		l0.0102921,0.0171471l0.0788727,0.1165962l0.0102921,0.0171471l0.0788727,0.1200294l0.0102844,0.0171471l0.0754471,0.1165962
		l0.0102921,0.0137177l0.0754395,0.1165962l0.0102921,0.0137177l0.0788727,0.1200256l0.0102921,0.0137177l0.0754395,0.1200294
		l0.0102921,0.0171432l0.0720139,0.1200294l0.0102921,0.0171471l0.0754395,0.1200256l0.0102921,0.0171471l0.0720139,0.1200256
		l0.0102921,0.0171471l0.0720139,0.123455l0.0102844,0.0137177l0.0685883,0.1234589l0.0102921,0.0171471l0.0685806,0.123455
		l0.0102921,0.0171471l0.0685883,0.123455l0.0102844,0.0171471l0.0685883,0.123455l0.0068588,0.0171471l0.0685883,0.1268845
		l0.0068588,0.0171471l0.065155,0.1268845l0.0068588,0.0171471l0.065155,0.1268883l0.0102921,0.0137177l0.0617294,0.1303139
		l0.0068588,0.0171471l0.065155,0.1268845l0.0068588,0.0171471l0.0617294,0.1268845l0.0102844,0.0171471l0.0583038,0.1303139
		l0.0068588,0.0171471l0.0582962,0.1303139l0.0068588,0.0171471l0.0582962,0.1303177l0.0068588,0.0171432l0.0583038,0.1303177
		l0.0068512,0.0171471l0.0548706,0.1303139l0.0068588,0.0171471l0.0548706,0.1303139l0.0068588,0.0171471l0.051445,0.1337433
		l0.0068512,0.0171471l0.051445,0.1303139l0.0068588,0.0171471l0.0514374,0.1337433l0.0068588,0.0171471l0.0514374,0.1337471
		l0.0068588,0.0171432l0.051445,0.1337471l0.0068588,0.0171471l0.0480118,0.1337433l0.0068588,0.0171471l0.0445786,0.1337433
		l0.0068588,0.0171471l0.0445786,0.1337433l0.0068588,0.0171471l0.0445862,0.1337433l0.0068588,0.0171471l0.0445786,0.1371727
		l0.0034256,0.0171471l0.041153,0.1337433l0.0068588,0.0171471l0.041153,0.1371727l0.0034332,0.0171471l0.041153,0.1371765
		l0.0068588,0.0171432l0.0411453,0.1371765l0.0068588,0.0171471l0.0377274,0.1371727l0.0068588,0.0171471l0.0377197,0.1371727
		l0.0034332,0.0171471l0.0342941,0.1371727l0.0068588,0.0205765l0.0377197,0.1406021l0.0034256,0.0171471l0.0342941,0.1406021
		l0.0068588,0.0171471l0.0308685,0.1406021l0.0068588,0.0171471l0.0342941,0.1406021l0.0034256,0.0205765l0.0308685,0.1406021
		l0.0034256,0.0171471l0.0308609,0.1406021l0.0034332,0.0171471l0.0274353,0.1406059l0.0034256,0.0171432l0.0274353,0.1406059
		l0.0034332,0.0171471l0.0274353,0.1406021l0.0034256,0.0171471l0.0240097,0.1440315l0.0034256,0.0171471l0.0240097,0.1406021
		l0.0034256,0.0205765l0.0240097,0.1440315l0.0034256,0.0205765l0.0205765,0.1440315l0.0034256,0.0205765l0.0205765,0.1406021
		V40.28545l0.0102921,0.0754471v0.006855l0.0068588,0.0720177v0.0102882l0.0102844,0.0720177v0.0068588l0.0102921,0.0720139
		v0.0102882l0.0102844,0.0720177l0.0034332,0.0102882l0.0102844,0.0720139v0.0102882l0.0068588,0.0720177l0.0034332,0.0068588
		l0.0068588,0.0720139l0.0034256,0.0102882l0.0068588,0.0720177v0.0102882l0.0068588,0.0720139l0.0034332,0.0102882
		l0.0068588,0.0720177l0.0034256,0.0102882l0.0068588,0.0720139v0.0102882l0.0068588,0.0720177v0.0102882l0.0068588,0.0720139
		v0.0102882l0.0068588,0.0720177v0.0102882l0.0068588,0.0720139v0.0102882l0.0034256,0.0720177v0.0102882l0.0034332,0.0754433
		v0.0102882l0.0068588,0.0754471v0.0068588l0.0034256,0.0720139v0.0102882l0.0034332,0.0720177v0.0102882l0.0034256,0.0720177
		v0.0102844l0.0034332,0.0720177v0.0102882l0.0034256,0.0754471v0.0102844l0.0034332,0.0720177v0.0102882l0.0034256,0.0720177
		v0.0068588l0.0034332,0.0720139V90.367485l-0.0034332,0.0788727v0.0994492l-0.0034256,0.0788727v0.0102921l-0.0034332,0.0754471
		v0.0068588l-0.0034256,0.0788727v0.0102844l-0.0034332,0.0754471v0.0068588l-0.0034256,0.0754471v0.0102844l-0.0034332,0.0754471
		l-0.0034256,0.0102921l-0.0034332,0.0754395v0.0102921l-0.0034256,0.0754471v0.0068588l-0.0034332,0.0788727v0.0102844
		l-0.0068588,0.0788803v0.0068588l-0.0068588,0.0788727v0.0102844l-0.0068588,0.0754471v0.0102921l-0.0034256,0.0754395v0.0102921
		l-0.0068588,0.0754471v0.0102844l-0.0068588,0.0754471v0.0102844l-0.0068588,0.0754471v0.0102921l-0.0068588,0.0754395
		l-0.0034256,0.0068588l-0.0068588,0.0788803l-0.0034332,0.0102844l-0.0068588,0.0754471v0.0102844l-0.0068588,0.0754471
		l-0.0034256,0.0102921l-0.0102921,0.0754395v0.0102921l-0.0102844,0.0754471v0.0068588l-0.0102921,0.0754395v0.0102921
		l-0.0102844,0.0754471l-0.0034332,0.0102844l-0.0102844,0.0788727l-0.0034332,0.0102921l-0.0102844,0.0754471l-0.0034332,0.0102844
		l-0.0102844,0.0754471v0.0102844l-0.0102921,0.0754471v0.0102921l-0.0102844,0.0754395l-0.0034332,0.0102921l-0.0102844,0.0754471
		l-0.0034332,0.0102844l-0.01371,0.0754471v0.0068588l-0.0102921,0.0754471v0.0068588l-0.0137177,0.0754395l-0.0034256,0.0102921
		l-0.0102921,0.0754471l-0.0034256,0.0102844l-0.0102921,0.0754471v0.0068588l-0.0137177,0.0754471v0.0068588l-0.0137177,0.0754395
		v0.0068588l-0.0137177,0.0754471v0.0102921l-0.0137177,0.0720139l-0.0034256,0.0102844l-0.0137177,0.0720215l-0.0034332,0.0102844
		l-0.0137177,0.0754471l-0.0034256,0.0102844l-0.0171432,0.0754471v0.0068588l-0.0171509,0.0754471v0.0068588l-0.0137177,0.0720139
		v0.0102921l-0.0171432,0.0754471v0.0068512l-0.0137177,0.0754471l-0.0034332,0.0068588l-0.0171432,0.0720215v0.0068588
		l-0.0171509,0.0720139v0.0102844l-0.0171432,0.0720215L117.6362,94.6953049l-0.0171432,0.0720139l-0.0034332,0.0102921
		l-0.0171432,0.0720139l-0.0034332,0.0068588l-0.0171432,0.0720139l-0.0034256,0.0068588l-0.0171509,0.0720215l-0.0034256,0.0102844
		l-0.0205765,0.0720139l-0.0034332,0.0102921l-0.0171432,0.0720139l-0.0034332,0.0102921l-0.0205765,0.0720139v0.0102844
		l-0.0205765,0.0754471l-0.0034256,0.0102921l-0.0205765,0.0720139v0.0102844l-0.0205765,0.0720215l-0.0034256,0.0102844
		l-0.0205765,0.0720139l-0.0034332,0.0102921l-0.0205765,0.0754471l-0.0034256,0.0068588l-0.0205765,0.0720139L117.3481369,95.7584
		l-0.0205765,0.0720139l-0.0034256,0.0102921l-0.0240097,0.0720139l-0.0034256,0.0102844l-0.0205765,0.0720215l-0.0034332,0.0068588
		l-0.0205765,0.0720139l-0.0034256,0.0102921l-0.0205765,0.0720139l-0.0034332,0.0068588l-0.0240021,0.0720139l-0.0034256,0.0102921
		l-0.0240097,0.0720139l-0.0034256,0.0102844l-0.0240097,0.0720215l-0.0034256,0.0102844l-0.0240097,0.0720139l-0.0034256,0.0102921
		l-0.0240097,0.0720139l-0.0034256,0.0068588l-0.0240021,0.0720139l-0.0034332,0.0102921l-0.0240021,0.0720139l-0.0034332,0.0102921
		l-0.0240021,0.0720139l-0.0034332,0.0068588l-0.0240021,0.0720139l-0.0034332,0.0102921l-0.0240021,0.0720139l-0.0034332,0.0102844
		l-0.0274353,0.0685883l-0.0034256,0.0102921l-0.0240097,0.0685806l-0.0034256,0.0102921l-0.0240021,0.0685883l-0.0034332,0.0102844
		l-0.0240021,0.0720215l-0.0034332,0.0102844l-0.0274353,0.0720139l-0.0034256,0.0102921l-0.0274353,0.0685883l-0.0034332,0.0102844
		l-0.0274353,0.0685883l-0.0034256,0.0102844l-0.0274353,0.0685883l-0.0034332,0.0102921l-0.0274277,0.0685806l-0.0034332,0.0102921
		l-0.0274353,0.0685883l-0.0034256,0.0102844l-0.0274353,0.0685883l-0.0034332,0.0068588l-0.0308609,0.0685883l-0.0034332,0.0102844
		l-0.0308609,0.0720139l-0.0034332,0.0102921l-0.0274277,0.0685883l-0.0034332,0.0102844l-0.0308609,0.0685883l-0.0034332,0.0102844
		l-0.0308609,0.0685883l-0.0034332,0.0102921l-0.0308609,0.0685883l-0.0034332,0.0068588l-0.0308609,0.0685806L116.384491,98.40242
		l-0.0308609,0.0685883l-0.0034256,0.0068588l-0.0308685,0.0685806l-0.0034256,0.0068588l-0.0308685,0.0685883l-0.0034256,0.0068588
		l-0.0308685,0.0685883l-0.0034256,0.0068588l-0.0342941,0.0685883l-0.0034256,0.0068588l-0.0342941,0.065155l-0.0034332,0.0102844
		l-0.0308609,0.0685883l-0.0034332,0.0068588l-0.0342941,0.0651627l-0.0034256,0.0102844l-0.0308685,0.0685883l-0.0034256,0.0068588
		l-0.0342941,0.0685883l-0.0034256,0.0102844l-0.0342941,0.0685883l-0.0034332,0.0068588l-0.0342941,0.065155l-0.0034256,0.0068588
		l-0.0342941,0.0685883l-0.0034332,0.0102844l-0.0342941,0.0685883l-0.0034256,0.0102921l-0.0342941,0.0685883l-0.0068588,0.0102844
		l-0.0342941,0.065155l-0.0034256,0.0068588l-0.0342941,0.0685883l-0.0034332,0.0102921l-0.0342941,0.0685806l-0.0034256,0.0102921
		l-0.0377274,0.065155l-0.0068512,0.0068588l-0.0377274,0.065155l-0.0034256,0.0068588l-0.0377274,0.0651627l-0.0034256,0.0068588
		l-0.0377274,0.065155l-0.0034256,0.0068588l-0.0377197,0.065155l-0.0034332,0.0068588l-0.0377197,0.0651627l-0.0034332,0.0102844
		l-0.0377197,0.065155l-0.0034332,0.0068588l-0.0377197,0.0651627l-0.0034332,0.0102844l-0.0377197,0.065155l-0.0068588,0.0068588
		l-0.0377197,0.0651627l-0.0068588,0.0068588l-0.0377274,0.065155l-0.0034256,0.0068588l-0.0377274,0.065155l-0.0034256,0.0102921
		l-0.041153,0.065155l-0.0034332,0.0068588l-0.0377197,0.0617294l-0.0034256,0.0102844l-0.0377274,0.0617294l-0.0068588,0.0068588
		l-0.041153,0.065155l-0.0034256,0.0102921l-0.041153,0.0617294l-0.0068588,0.0068588l-0.041153,0.0617294l-0.0034256,0.0068588
		l-0.041153,0.065155l-0.0068588,0.0102844l-0.041153,0.0617294l-0.0068588,0.0068588l-0.041153,0.0617294l-0.0034332,0.0068588
		l-0.0411453,0.065155l-0.0034332,0.0068588l-0.041153,0.0617294l-0.0068588,0.0068588l-0.0445786,0.0617294l-0.0034332,0.0068588
		l-0.0411453,0.0617294l-0.0034332,0.0068588l-0.0445786,0.0617218l-0.0034332,0.0068588l-0.041153,0.0617294l-0.0068588,0.0068588
		l-0.0411453,0.0617294l-0.0068665,0.0068588l-0.0445786,0.0617294l-0.0068588,0.0068588l-0.041153,0.0617294l-0.0034256,0.0068588
		l-0.0445862,0.0617218l-0.0068588,0.0102921l-0.041153,0.0617294l-0.0068512,0.0068588l-0.0445862,0.0617218l-0.0068588,0.0068665
		l-0.0445786,0.0617218l-0.0068588,0.0068588l-0.0445862,0.0617294l-0.0068512,0.0068588l-0.0445862,0.0617294l-0.0034256,0.0068588
		l-0.0445862,0.0582962l-0.0068588,0.0068588l-0.0445786,0.0583038l-0.0034332,0.0068588l-0.0480042,0.0582962l-0.0068588,0.0068588
		l-0.0445862,0.0582962l-0.0034256,0.0068588l-0.0445862,0.0617294l-0.0068588,0.0068588l-0.0480118,0.0617294l-0.0068512,0.0068588
		l-0.0480118,0.0582962l-0.0068588,0.0068588l-0.0480118,0.0582962l-0.0034332,0.0068588l-0.0480118,0.0583038l-0.0068512,0.0068588
		l-0.0480118,0.0582962l-0.0068588,0.0068588l-0.0480118,0.0582962l-0.0068588,0.0068588l-0.0480118,0.0583038l-0.0068588,0.0068588
		l-0.0480118,0.0582962l-0.0034256,0.0068588l-0.0480118,0.0582962l-0.0068588,0.0068588l-0.051445,0.0583038l-0.0068588,0.0068588
		l-0.0480042,0.0582962l-0.0068588,0.0068588l-0.0480118,0.0582962l-0.0068588,0.0068588l-0.0480118,0.0583038l-0.0068588,0.0068512
		l-0.0480118,0.0583038l-0.0068588,0.0068588l-0.0480118,0.0548706l-0.0068588,0.0068588l-0.0514374,0.0582962l-0.0068588,0.0068588
		l-0.0480118,0.0582962l-0.0068588,0.0068588l-0.0514374,0.0583038l-0.0068588,0.0068588l-0.0480118,0.0582962l-0.0068588,0.0068588
		l-0.0514374,0.0548706l-0.0068588,0.0068588l-0.051445,0.0548706l-0.0068588,0.0068512l-0.0514374,0.0548706l-0.0068588,0.0068588
		l-0.0514374,0.0548706l-0.0068588,0.0068588l-0.051445,0.0548706l-0.0068588,0.0068588l-0.0514374,0.0548706l-0.0068588,0.0068588
		l-0.0514374,0.0548706l-0.0068588,0.0068588l-0.051445,0.054863l-0.0068588,0.0068588l-0.0548706,0.0548706l-0.0068588,0.0068588
		l-0.0514374,0.0548706l-0.0068588,0.0068588l-0.0514374,0.0514374l-0.0068588,0.0068588l-0.0548706,0.0548706l-0.0102921,0.0068588
		l-0.054863,0.0548706l-0.0068588,0.0068588l-0.0548706,0.0514374l-0.0068588,0.0068588l-0.0548706,0.0548706l-0.0068588,0.0068588
		l-0.0548706,0.051445l-0.0068588,0.0068512l-0.0548706,0.051445l-0.0068588,0.0068588l-0.054863,0.0514374l-0.0068588,0.0068588
		l-0.0548706,0.051445l-0.0068588,0.0068512l-0.0548706,0.051445l-0.0068588,0.0068588l-0.0548706,0.0514374l-0.0068588,0.0068588
		l-0.0582962,0.051445l-0.0068588,0.0034256l-0.0548706,0.0514374l-0.0068588,0.0068588l-0.0582962,0.051445l-0.0068588,0.0068588
		l-0.0583038,0.0514374l-0.0068588,0.0034332l-0.0582962,0.0514374l-0.0068588,0.0068588l-0.0582962,0.0480118l-0.0102921,0.0068588
		l-0.0582962,0.0480118l-0.0068588,0.0068588l-0.0582962,0.0514374l-0.0068588,0.0068588l-0.0583038,0.0514374l-0.0068588,0.0068588
		l-0.0582962,0.051445l-0.0068588,0.0068588l-0.0582962,0.0480042l-0.0068588,0.0068588l-0.0617294,0.0480118l-0.0068588,0.0034332
		l-0.0582962,0.0480118l-0.0068588,0.0068588l-0.0583038,0.0480042l-0.0102844,0.0068588l-0.0583038,0.0480118l-0.0068588,0.0068588
		l-0.0582962,0.0480118l-0.0068588,0.0068588l-0.0582962,0.0480118l-0.0068588,0.0068588l-0.0617294,0.0480118l-0.0068588,0.0068588
		l-0.0582962,0.0445786l-0.0068588,0.0068588l-0.0617294,0.0480118l-0.0068588,0.0068588l-0.0617294,0.0480118l-0.0068588,0.0068588
		l-0.0617294,0.0480118l-0.0068588,0.0068588l-0.0617294,0.0480118l-0.0068588,0.0034256l-0.0617218,0.0445786l-0.0068588,0.0034332
		l-0.0617294,0.0445786l-0.0068588,0.0034332l-0.0617294,0.0445786l-0.0102844,0.0034332l-0.0617294,0.0445786l-0.0068588,0.0068588
		l-0.0617294,0.0445786l-0.0068588,0.0068588l-0.0617294,0.0445862l-0.0068588,0.0068588l-0.0617294,0.0445786l-0.0102844,0.0068588
		l-0.0617294,0.0445786l-0.0068588,0.0034332l-0.065155,0.0445786l-0.0102921,0.0034332l-0.065155,0.0445786l-0.0068588,0.0068588
		l-0.065155,0.0445786l-0.0068588,0.0068588l-0.0651627,0.041153l-0.0068588,0.0068588l-0.065155,0.0445862l-0.0068588,0.0068588
		l-0.0617294,0.0445786l-0.0102844,0.0068588l-0.065155,0.041153l-0.0068588,0.0034256l-0.0651627,0.041153l-0.0102844,0.0034332
		l-0.065155,0.041153l-0.0068665,0.0068588l-0.065155,0.0411453l-0.0068588,0.0068588l-0.065155,0.041153l-0.0068588,0.0034332
		l-0.065155,0.041153l-0.0102921,0.0034256l-0.065155,0.041153l-0.0068588,0.0068588l-0.065155,0.041153l-0.0102921,0.0034256
		l-0.065155,0.041153l-0.0102921,0.0068588l-0.065155,0.041153l-0.0102921,0.0068588l-0.0685806,0.041153l-0.0068588,0.0068588
		l-0.0651627,0.0377197l-0.0102844,0.0034332l-0.065155,0.0377197l-0.0068588,0.0068588l-0.0685883,0.041153l-0.0102921,0.0068588
		l-0.0685806,0.0377274l-0.0068588,0.0068512l-0.0651627,0.0377274l-0.0102844,0.0034256l-0.0685883,0.0377274l-0.0102844,0.0034256
		l-0.0685883,0.0377274l-0.0068588,0.0034256l-0.0651627,0.0377197l-0.0034256,0.0034332l-39.7563019,22.1535263h-0.0034332
		l-0.0617218,0.0377197l-0.0102921,0.0034332l-0.065155,0.0377197l-0.0102921,0.0068512l-0.065155,0.0343018l-0.0102844,0.0034332
		l-0.0651627,0.0342865l-0.0068588,0.0034332l-0.065155,0.0342865l-0.0102921,0.0034332l-0.065155,0.0343018l-0.0102844,0.003418
		l-0.0651627,0.0343018l-0.0102844,0.003418l-0.065155,0.0343018l-0.0068588,0.0034332l-0.0651627,0.0342865l-0.0068588,0.0034332
		l-0.065155,0.0308685l-0.0068588,0.003418l-0.0685883,0.0343018l-0.0068588,0.0068512l-0.065155,0.0343018l-0.0068588,0.003418
		l-0.065155,0.0308685l-0.0068588,0.0034332l-0.0651627,0.0308685l-0.0068588,0.003418l-0.065155,0.0343018l-0.0068588,0.0034332
		l-0.0685883,0.0308533l-0.0068588,0.0034332l-0.065155,0.0308685l-0.0068588,0.003418l-0.0685883,0.0308685l-0.0068588,0.0034332
		l-0.065155,0.0308685l-0.0068588,0.003418l-0.065155,0.0308685l-0.0102921,0.0068665l-0.0685883,0.0308533l-0.0068588,0.0034332
		l-0.0685806,0.0274353l-0.0068588,0.0034332l-0.0685883,0.0308533l-0.0068588,0.0068665l-0.0685883,0.0308685l-0.0102844,0.003418
		l-0.0651627,0.0274353l-0.0068588,0.0034332l-0.0685883,0.0308685l-0.0068588,0.003418l-0.0685806,0.0274353l-0.0068588,0.0034332
		l-0.0685883,0.0274353l-0.0068588,0.0034332l-0.0685883,0.0274353l-0.0102844,0.0034332l-0.0685883,0.0274353l-0.0102921,0.003418
		l-0.0685806,0.0274353l-0.0102921,0.0034332l-0.065155,0.0274353l-0.0068588,0.0034332l-0.0685883,0.0240021l-0.0068588,0.0034332
		l-0.0685883,0.0274353l-0.0102844,0.003418l-0.0685883,0.0274353l-0.0102921,0.0034332l-0.0685806,0.0274353l-0.0102921,0.0034332
		l-0.0685883,0.0240021l-0.0102844,0.0034332l-0.0685883,0.0274353l-0.0102844,0.003418l-0.0685883,0.0240173l-0.0068588,0.003418
		l-0.0685883,0.0240173l-0.0102844,0.003418l-0.0685883,0.0240173l-0.0102921,0.003418l-0.0685806,0.0240173l-0.0102921,0.003418
		l-0.0685883,0.0240173l-0.0068588,0.003418l-0.0685883,0.0240021l-0.0685806,0.0240173l-0.0102921,0.003418l-0.0720139,0.0205841
		l-0.0102921,0.0034332l-0.0685806,0.0205688l-0.0068588,0.0034332l-0.0685883,0.0240021l-0.0068588,0.0034332l-0.0720139,0.0205688
		l-0.0102921,0.0034332l-0.0685883,0.0205688l-0.0102844,0.0034332l-0.0685883,0.0205841l-0.0102844,0.003418l-0.0720215,0.0240173
		l-0.0137177,0.003418l-0.1371689,0.041153l-0.0171509,0.0068665l-0.1406021,0.041153l-0.0171471,0.0034332l-0.1406021,0.0411377
		l-0.0171471,0.0034332l-0.1406021,0.0377197l-0.0171471,0.0068665l-0.1406021,0.0377197l-0.0171471,0.0034332l-0.1406021,0.0377197
		l-0.0205765,0.0034332l-0.1406021,0.0342865l-0.0171471,0.0034332l-0.1406021,0.0342865l-0.0205765,0.0034332l-0.1406021,0.0343018
		l-0.0171471,0.003418l-0.1406021,0.0308685l-0.0171471,0.0034332l-0.1440315,0.0308685l-0.0205765,0.003418l-0.1440315,0.0308685
		l-0.0171471,0.0034332l-0.1440315,0.0274353l-0.0171471,0.003418l-0.1406021,0.0240173l-0.0171471,0.003418l-0.1406059,0.0274353
		l-0.0171432,0.0034332l-0.1440353,0.0240021l-0.0171471,0.0034332l-0.1440315,0.0240021l-0.0171471,0.0034332l-0.1440315,0.0205841
		l-0.0171471,0.003418l-0.1440315,0.0205841l-0.0171471,0.003418l-0.1440315,0.0205841l-0.0171471,0.0034332l-0.1440315,0.0205688
		l-0.0205765,0.0034332l-0.1440315,0.0171509l-0.0171471,0.003418l-0.1440315,0.0171509l-0.0171471,0.0034332l-0.1440315,0.0171509
		l-0.1440315,0.0137177h-0.0171471l-0.1440315,0.0102844l-0.0171471,0.0034332l-0.1440315,0.0102844h-0.0171471
		l-0.1440315,0.0102844h-0.0171471l-0.1440353,0.0102844l-0.0205727,0.0034332l-0.1440353,0.0102844h-0.0171471
		l-0.1440315,0.0068665h-0.0171471l-0.1440315,0.0068512h-0.0205765l-0.1440315,0.0034332h-0.0171471l-0.1440315,0.0034332
		h-0.0171471l-0.1440315,0.003418h-0.5075417l-0.1440315-0.003418l-0.1440315-0.0034332h-0.0205765l-0.1440315-0.0034332h-0.0030861
		l-0.1440353-0.0068512l-0.0171432-0.0034332l-0.1440353-0.0068665h-0.0171471l-0.1440315-0.0068512l-0.0171471-0.0034332
		l-0.1440315-0.0068512h-0.0171471l-0.1440315-0.0102997l-0.0171471-0.003418l-0.1440315-0.0137177l-0.0205765-0.0034332
		l-0.1440315-0.0137177l-0.0205765-0.0034332l-0.1440315-0.0137177l-0.0171471-0.003418l-0.1440315-0.0137177h-0.0171471
		l-0.1440315-0.0137177l-0.0171471-0.0034332l-0.1440315-0.0171509h-0.0205765l-0.1440315-0.0171509l-0.0205765-0.003418
		l-0.1440315-0.0205841l-0.0171471-0.0034332l-0.1440315-0.0205688l-0.0171471-0.0034332l-0.1440315-0.0205688l-0.0171471-0.0034332
		l-0.1440315-0.0205688l-0.0171471-0.0034332l-0.1406059-0.0240021H54.595047l-0.1440353-0.0274353l-0.0185165-0.0034332
		l-0.1406021-0.0274353l-0.0171471-0.0034332l-0.1406021-0.0274353l-0.0171471-0.0034332l-0.1406059-0.0274353l-0.0205727-0.003418
		l-0.142662-0.0274353l-0.0171471-0.0034332l-0.1406021-0.0308685l-0.0205765-0.0068512l-0.1406021-0.0308685l-0.0171471-0.0034332
		l-0.1406021-0.0342865l-0.0192032-0.0068665l-0.1406059-0.0342865l-0.0171471-0.0068512l-0.1406021-0.037735l-0.0171471-0.003418
		l-0.1406021-0.037735l-0.0171471-0.0068512l-0.1406021-0.0377197l-0.0171471-0.0068665l-0.1406021-0.0377197l-0.0171471-0.0068512
		l-0.1406021-0.041153l-0.0205765-0.0068665l-0.1406021-0.041153l-0.0171471-0.0068512l-0.1406021-0.041153l-0.0171471-0.0068665
		l-0.1406021-0.041153l-0.0171471-0.003418l-0.1364899-0.0445862l-0.0137177-0.0034332l-0.0720139-0.0240021h-0.0092583
		l-0.0685883-0.0205841l-0.0102882-0.003418l-0.0685883-0.0240173l-0.0102844-0.003418l-0.0685883-0.0240173l-0.0102882-0.003418
		l-0.0685883-0.0240021l-0.0102882-0.0034332l-0.0685844-0.0240021l-0.0102882-0.0034332l-0.0685883-0.0240021l-0.0068588-0.0034332
		l-0.0685844-0.0240021l-0.0068588-0.0034332l-0.0685883-0.0240021l-0.0068588-0.0034332l-0.0685844-0.0274353l-0.0102882-0.0034332
		l-0.0685883-0.0274353l-0.0102882-0.003418l-0.0685844-0.0274353l-0.0068588-0.0034332l-0.0685883-0.0274353l-0.0102882-0.0034332
		l-0.0685883-0.0274353l-0.0068588-0.0034332l-0.0685844-0.02742l-0.0102882-0.0034332l-0.0685883-0.0274353l-0.0068588-0.0034332
		l-0.0685844-0.0274353l-0.0068588-0.0034332l-0.0685883-0.0274353l-0.0102882-0.003418l-0.0685844-0.0274353l-0.0102882-0.0034332
		l-0.0685883-0.0274353l-0.0102882-0.0034332l-0.0685844-0.0274353l-0.0102882-0.0034332l-0.0685883-0.02742l-0.0068588-0.0034332
		l-0.0685883-0.0308685l-0.0102844-0.0034332l-0.0651588-0.0308533l-0.0068588-0.0034332l-0.0685883-0.0308685l-0.0068588-0.0034332
		l-0.0685844-0.0308533l-0.0068588-0.0034332l-0.0685883-0.0274353l-0.0102882-0.0034332l-0.065155-0.0308533l-0.0102882-0.0034332
		l-0.0685883-0.0308685l-0.0102882-0.0034332l-0.065155-0.0308533l-0.0068588-0.0068665l-0.0651588-0.0308685l-0.0068588-0.003418
		l-0.0651588-0.0308685l-0.0068588-0.0034332l-0.0685844-0.0308533l-0.0068588-0.0068665l-0.0685883-0.0342865l-0.0068588-0.0068665
		l-0.065155-0.0308685l-0.0102882-0.003418l-0.0685883-0.0308685l-0.0068588-0.0068512l-0.065155-0.0343018l-0.0102882-0.0034332
		l-0.0685883-0.0342865l-0.0068588-0.0034332l-0.0651588-0.0342865l-0.0102844-0.0034332l-0.0651588-0.0343018l-0.0068588-0.003418
		l-0.0651588-0.0343018l-0.0102882-0.0068512l-0.065155-0.0343018l-0.0068588-0.003418l-0.0651588-0.0343018l-0.0068588-0.0034332
		l-0.065155-0.0342865l-0.0102882-0.0068665l-0.0651588-0.0342865l-0.0068588-0.0034332l-0.0651588-0.0377197l-0.0102882-0.0068512
		l-0.065155-0.0343018l-0.0102882-0.0034332l-0.0651588-0.0342865l-0.0102882-0.0034332l-0.065155-0.0342865l-0.0102882-0.0034332
		l-0.0651588-0.0377197l-0.0102882-0.0034332l-0.0617256-0.0377197l-0.0102882-0.0034332l-0.0617294-0.0377197l-0.0034294-0.0034332
		l-35.9394531-20.9772568l-0.0034294-0.0034332l-0.0754461-0.0445786L11.776,108.8756104l-0.0754461-0.0445786l-0.0102873-0.0034332
		l-0.0788755-0.0445786l-0.0102873-0.0034256l-0.0754461-0.0480118l-0.0068579-0.0034332l-0.0754461-0.0480118l-0.0068588-0.0068588
		l-0.0754452-0.0480042l-0.0068588-0.0068588l-0.0754452-0.0480118l-0.0102882-0.0034332l-0.0754452-0.0445786l-0.0102882-0.0068588
		l-0.0754452-0.0480118l-0.0068588-0.0068588l-0.0754452-0.0480118h0.0174894l-0.0754452-0.0480118l-0.0102882-0.0068588
		l-0.0754452-0.0480042l-0.0068588-0.0068588l-0.0754452-0.0480118l-0.0096025-0.0068588l-0.0754452-0.051445l-0.0102882-0.0068588
		l-0.0754452-0.0514374l-0.0068588-0.0068588l-0.0754452-0.0480118l-0.0068588-0.0068588l-0.0754452-0.0514374l-0.0068588-0.0068588
		l-0.0754452-0.0514374l-0.0068588-0.0068588l-0.0720158-0.051445l-0.0102882-0.0068588l-0.0737305-0.0514374l-0.0068588-0.0068588
		l-0.0720167-0.0514374l-0.0085726-0.0068588l-0.0720167-0.051445l-0.0092592-0.0068588l-0.0720158-0.0514374l-0.0068588-0.0034332
		l-0.0720158-0.0514374l-0.0068588-0.0068588l-0.0709877-0.0514374l-0.0068579-0.0068588l-0.0706444-0.051445l-0.0102882-0.0034256
		l-0.0720158-0.0514374l-0.0068588-0.0068588l-0.0720167-0.0548706l-0.0068579-0.0068588l-0.0720167-0.051445l-0.0089159-0.0068588
		l-0.0720167-0.054863l-0.0089159-0.0068588l-0.0685863-0.0548706l-0.0068588-0.0068588l-0.0685873-0.0548706l-0.0068579-0.0034332
		l-0.0685873-0.054863l-0.0068588-0.0068588l-0.0685863-0.0548706l-0.0068588-0.0068588l-0.0685863-0.0548706l-0.0068588-0.0068588
		l-0.0685873-0.0548706l-0.0068579-0.0068588l-0.0685873-0.0548706l-0.0068588-0.0068588l-0.0685863-0.0548706l-0.0068588-0.0068588
		l-0.0685863-0.0582962l-0.0068588-0.0034256l-0.0685873-0.0548706l-0.0068579-0.0068588l-0.0665293-0.0548706l-0.0068588-0.0068588
		l-0.0685873-0.0582962l-0.0068579-0.0068588l-0.0685873-0.0548706l-0.0068588-0.0068588L8.36621,106.3996353l-0.0068588-0.0034332
		l-0.067215-0.0548706l-0.0068588-0.0068588l-0.0651569-0.0548706l-0.0068588-0.0068588l-0.0651579-0.0582962l-0.0068579-0.0068588
		L8.076088,106.149292l-0.0068588-0.0068588l-0.0651569-0.0582962l-0.0068583-0.0068665l-0.0651579-0.0582962l-0.0068579-0.0068588
		l-0.0651579-0.0582962l-0.0068588-0.0068588l-0.0651569-0.0617294l-0.0068588-0.0034256l-0.0651574-0.0583038l-0.0102882-0.0068588
		l-0.0634427-0.0617218l-0.0068583-0.0068665l-0.0651574-0.0582962l-0.0068588-0.0068588L7.4996171,105.62117l-0.0068588-0.0068588
		l-0.061728-0.0617218l-0.0068588-0.0068588l-0.061728-0.0617294l-0.0068588-0.0068588l-0.0651569-0.0617294l-0.0068588-0.0068588
		l-0.0651574-0.0617294l-0.0068588-0.0034256l-0.061728-0.0617294l-0.0068588-0.0068588l-0.061728-0.0617294l-0.0068583-0.0068588
		l-0.0617285-0.0617294l-0.0068583-0.0068588l-0.061728-0.0617294l-0.0068588-0.0068588l-0.061728-0.0617218l-0.0068588-0.0068588
		l-0.061728-0.0617294l-0.0068588-0.0068588l-0.0582986-0.0617294l-0.0068588-0.0068588l-0.061728-0.0617294l-0.0068588-0.0068588
		l-0.061728-0.065155l-0.0068583-0.0068588l-0.0582991-0.065155l-0.0068583-0.0068588l-0.0582991-0.0651627l-0.0068583-0.0068588
		l-0.061728-0.065155l-0.0068588-0.0068588l-0.0582986-0.065155l-0.0068588-0.0068588l-0.0582986-0.0651627l-0.0068588-0.0068512
		l-0.0582986-0.0651627l-0.0068588-0.0068588l-0.0582986-0.065155l-0.0068588-0.0068588l-0.0582986-0.065155l-0.0034294-0.0068588
		l-0.0548697-0.0651627l-0.0068583-0.0068588l-0.0582991-0.065155l-0.0068583-0.0068588l-0.061728-0.0685883L5.88097,103.9270782
		l-0.0582986-0.065155l-0.0068588-0.0068588l-0.0582986-0.0685883l-0.0068588-0.0068588l-0.0548692-0.065155l-0.0034294-0.0068588
		l-0.0548697-0.065155l-0.0068583-0.0068588l-0.0548697-0.0685883l-0.0068588-0.0068588l-0.0582986-0.0685883l-0.0068588-0.0068588
		l-0.0548692-0.065155l-0.0068588-0.0068588l-0.0582986-0.0651627l-0.0068588-0.0068588l-0.0548692-0.065155l-0.0068588-0.0068588
		l-0.0548692-0.0685883l-0.0068588-0.0068588l-0.0548692-0.0685806l-0.0068588-0.0068588l-0.0548692-0.0685883l-0.0068588-0.0068588
		l-0.0548697-0.0685883l-0.0068583-0.0068588l-0.0548697-0.0685883l-0.0034294-0.0068588l-0.0514398-0.0685883l-0.0068588-0.0068512
		l-0.0514398-0.0685883l-0.0034294-0.0068588l-0.0514402-0.0685883l-0.0068588-0.0068588l-0.0514398-0.0720139l-0.0068588-0.0068588
		l-0.0514402-0.0685883l-0.0068583-0.0068588l-0.0514402-0.0685883l-0.0034294-0.0068588l-0.0514398-0.0720139l-0.0034294-0.0068588
		l-0.0514402-0.0720139l-0.0034294-0.0068588l-0.0514398-0.0685883l-0.0034294-0.0068588l-0.0514402-0.0685883l-0.0068583-0.0068588
		l-0.0514402-0.0720139l-0.0068588-0.0068588l-0.0514398-0.0720215l-0.0068588-0.0102844l-0.0480108-0.0720139l-0.0068583-0.0068588
		l-0.0480108-0.0720215l-0.0068588-0.0068588l-0.0480108-0.0720139l-0.0068583-0.0068588l-0.0480108-0.0720139l-0.0034294-0.0068588
		l-0.0480108-0.0720139l-0.0068583-0.0102921l-0.0480108-0.0720139l-0.0068588-0.0068588l-0.0480108-0.0720215l-0.0068583-0.0068512
		l-0.0480108-0.0720215l-0.0068588-0.0068588l-0.0480103-0.0720139l-0.0068588-0.0068588l-0.0445814-0.0720139l-0.0034294-0.0068588
		l-0.0445814-0.0720215l-0.0068583-0.0102844l-0.0480113-0.0720139l-0.0068583-0.0102921l-0.0480108-0.0720139l-0.0034294-0.0068588
		l-0.0480108-0.0754471l-0.0034289-0.0102844l-0.0445814-0.0720215l-0.0068588-0.0068588l-0.0445814-0.0720139l-0.0068588-0.0068588
		l-0.0445814-0.0754471l-0.0068583-0.0102844l-0.0445814-0.0720139l-0.0034294-0.0068588l-0.0445814-0.0754471l-0.0034294-0.0068588
		l-0.0445814-0.0720139l-0.0068583-0.0102921l-0.0445814-0.0754471l-0.0068588-0.0102844l-0.0445814-0.0754471l-0.0068588-0.0102844
		l-0.041152-0.0754471l-0.0068583-0.0068588l-0.0445814-0.0754471l-0.0034294-0.0068588l-0.041152-0.0754471l-0.0034294-0.0068588
		l-0.041152-0.0754395l-0.0034294-0.0102921l-0.041152-0.0754471L2.942028,99.7672958l-0.041152-0.0754471l-0.0034294-0.0102844
		l-0.041152-0.0788803l-0.0034294-0.0068588l-0.041152-0.0754395l-0.0034294-0.0102921l-0.041152-0.0754471l-0.0034294-0.0102844
		l-0.041152-0.0754471l-0.0034289-0.0102844l-0.0377231-0.0788803L2.677969,99.2528915l-0.041152-0.0788727L2.633388,99.1637344
		l-0.0411525-0.0788803l-0.0068583-0.0068588l-0.0377226-0.0788727l-0.0034294-0.0068588l-0.0377231-0.0754471l-0.0034289-0.0102844
		l-0.0377231-0.0788727v0.0034256l-0.0377226-0.0788727l-0.0068588-0.0102921l-0.0377226-0.0788727l-0.0034294-0.0102844
		l-0.0377226-0.0754471l-0.0034294-0.0102921l-0.0377226-0.0788727l-0.0034294-0.0068588L2.2595901,98.40242l-0.0034294-0.0068588
		l-0.0342932-0.0788727l-0.0034294-0.0068588l-0.0377226-0.0788803l-0.0034294-0.0068588l-0.0377231-0.0788727l-0.0034289-0.0068588
		l-0.0377231-0.0788727l-0.0034289-0.0102921l-0.0342937-0.0788727l-0.0034294-0.0068588l-0.0377226-0.0788727l-0.0034294-0.0102921
		l-0.0377227-0.0788727l-0.0034292-0.0068588l-0.0342934-0.0788727l-0.0034294-0.0068588L1.902939,97.6239624l-0.0034292-0.0102921
		l-0.0342934-0.0788727L1.861787,97.5279388l-0.030864-0.0788727l-0.0034294-0.0068588L1.7932004,97.363327L1.789771,97.3530426
		l-0.030864-0.0823059l-0.0034294-0.0068588l-0.0342933-0.0788727l-0.0034294-0.0102921l-0.030864-0.0754395l-0.0034293-0.0102921
		l-0.0342934-0.0823059l-0.0034293-0.0068588l-0.0308641-0.0822983l-0.0034293-0.0102921l-0.030864-0.0823059L1.577152,96.8180618
		l-0.030864-0.0822983l-0.0034293-0.0102921l-0.0308641-0.0823059l-0.0034293-0.0068588l-0.030864-0.0822983l-0.0034294-0.0068588
		l-0.0274347-0.0823059l-0.0034293-0.0102921l-0.030864-0.0822983l-0.0034293-0.0068588l-0.0274347-0.0823059l-0.0034294-0.0102921
		l-0.0274347-0.0822983l-0.0034293-0.0102921l-0.030864-0.0823059L1.3130931,96.087616l-0.0274347-0.0823059l-0.0034293-0.0068588
		L1.2547944,95.916153l-0.0034293-0.0068588l-0.0274347-0.0823059l-0.0034293-0.0102921l-0.0274347-0.0822983l-0.0034294-0.0102921
		l-0.0274347-0.0823059l-0.0034293-0.0102844l-0.0274347-0.0823059l-0.0034293-0.0102844l-0.0274347-0.0823059l-0.0030864-0.0099487
		l-0.0240053-0.0822983l-0.0034294-0.0068588l-0.0274347-0.0857391l-0.0034293-0.0102844l-0.0240053-0.0857315l-0.0034294-0.0102921
		l-0.0240053-0.0823059L0.9842197,95.072876l-0.0240053-0.0823059L0.956785,94.9802856l-0.0240053-0.0857391l-0.0034294-0.0102844
		L0.905345,94.7985306l-0.0034293-0.0068588l-0.0240054-0.0857391L0.874481,94.702507l-0.0240054-0.0857315l-0.0034293-0.0068588
		l-0.020576-0.0823059L0.8230408,94.520752l-0.020576-0.0823059v-0.0068588l-0.0240054-0.0857315v-0.0102844l-0.020576-0.0823059
		l-0.0034293-0.0102921l-0.020576-0.0822983L0.7304487,94.150383l-0.020576-0.0857315h0.0034294L0.6927261,93.97892
		l-0.0034294-0.0068588l-0.020576-0.0857391l-0.0034294-0.0068588l-0.020576-0.0857315L0.641286,93.7868729L0.62071,93.7011414
		l0.0034294-0.0034332l-0.020576-0.0857315L0.600134,93.6016922l-0.020576-0.0857391l-0.0034294-0.0102844l-0.0171467-0.0857315
		l-0.0034293-0.0102921l-0.0205761-0.0857315l-0.0034293-0.0068588l-0.0171467-0.0857315l-0.0034294-0.0102921l-0.0171466-0.0857315
		l-0.0034294-0.0102844l-0.0171467-0.0857391l-0.0171466-0.0857315v-0.0102844l-0.0171467-0.0891647v-0.0102921
		l-0.0171467-0.0857315l-0.0034293-0.0102844l-0.0205761-0.0823059v-0.0102921l-0.0171466-0.0925903l-0.0034294-0.0102844
		L0.3600804,92.46315l-0.0034293-0.0102844l-0.0137174-0.0857391L0.3395044,92.356842L0.325787,92.2711105v-0.0102921
		L0.3120697,92.175087v-0.0102921l-0.0137174-0.0857315L0.294923,92.068779l-0.0137174-0.0857391v0.0034332l-0.0137174-0.0857315
		v-0.0068588l-0.0137174-0.0857391v-0.0102844l-0.0137174-0.0857315v-0.0102921l-0.0137174-0.0857315v-0.0068588
		l-0.010288-0.0891647v-0.0102844l-0.010288-0.0857391v-0.0068512l-0.0137174-0.0891647L0.1886135,91.317749l-0.010288-0.0857315
		v-0.0102844l-0.010288-0.0891647l-0.0034293-0.0102921l-0.010288-0.0891571v-0.0102921l-0.010288-0.0891647L0.1406028,90.923378
		l-0.010288-0.0891647v-0.0102844l-0.010288-0.0891647l-0.0034293-0.0068588l-0.010288-0.0891647l-0.0068587-0.0891571v-0.0102921
		l-0.010288-0.0891647l-0.0034294-0.0102844l-0.010288-0.0891647v-0.0102844l-0.0068587-0.0891647l-0.0034293-0.0102921
		l-0.0068587-0.0891571v-0.0102921l-0.0068587-0.0891647V90.042038l-0.0068587-0.0891647l-0.0068587-0.0891571v-0.0102921
		L0.030864,89.7642593v-0.0102844l-0.0068587-0.0891647v-0.1107635L0.020576,89.4648819v-0.0102921l-0.0034294-0.0891571v-0.0102921
		L0.0137174,89.265976L0.010288,89.2556915l-0.0034294-0.0891647v-0.0960236l-0.0034293-0.0891571v-0.0102921L0,88.881897
		V45.4664917l0.0034294-0.0857315V45.271019l0.0034293-0.0891609v-0.3154984L0.010288,44.777195v-0.0068588l0.0034293-0.0891609
		V44.670887l0.0034293-0.0891647V44.571434l0.0034294-0.0891609v-0.0068588l0.0034293-0.0891647v-0.0102882l0.0034294-0.0891609
		v-0.0102882l0.0068587-0.0925903v-0.0102882l0.0068587-0.0891647V44.07761l0.0034293-0.0891609v-0.0102882l0.0068587-0.0891647
		v-0.0102882l0.0034293-0.0891609v-0.0102882l0.0034294-0.0891647v-0.0102882l0.0068587-0.0891609v-0.0102882l0.0068587-0.0891609
		v-0.0102882l0.010288-0.0891647v-0.0102882l0.0068587-0.0891609l0.0034293-0.0068588L0.0994508,43.19627v-0.0068588
		l0.010288-0.0891609v-0.0068588l0.010288-0.0891647l0.0034293-0.0102882l0.010288-0.0891609v-0.0102882l0.010288-0.0891609
		v-0.0068588l0.010288-0.0891647V42.702446l0.010288-0.0891609l0.0034293-0.0102882l0.010288-0.0891647v-0.0102882
		l0.010288-0.0857315v-0.0102882l0.010288-0.0891647v-0.0102882l0.010288-0.0891609l0.0034293-0.0102882l0.010288-0.0857353
		v-0.0102844l0.0137173-0.0891647v-0.0102882l0.010288-0.0891609l0.0034294-0.0102882l0.010288-0.0857353l0.0034294-0.0102882
		l0.0137174-0.0891609l0.0034294-0.0068588l0.0137174-0.0891647v-0.0068588l0.0137173-0.0891609v-0.0068588l0.0137174-0.0857353
		l0.0034294-0.0102882l0.0137174-0.0857315v-0.0102882l0.0240054-0.0891609l0.0034294-0.0102882l0.0137174-0.0857353v-0.0102882
		l0.0171466-0.0857315v-0.0068588l0.0171467-0.0857353V40.956913l0.0171467-0.0891609l0.0034293-0.0068588l0.0171467-0.0857353
		l0.0034294-0.0068588l0.0171466-0.0857315l0.0034294-0.0102882l0.0171467-0.0857353l0.0034293-0.0102882l0.0171467-0.0857315
		v-0.0102882l0.0171467-0.0857315v-0.0068588l0.0171466-0.0857353l0.0034294-0.0068588L0.56927,40.2093201l0.0034293-0.0068588
		l0.0205761-0.0857353v-0.0102882l0.020576-0.0857315l0.0034294-0.0102882l0.0171466-0.0857353l0.0034294-0.0102882
		l0.020576-0.0857315v-0.0102882l0.0205761-0.0857353l0.0034294-0.0102882l0.020576-0.0857315v-0.0102882l0.020576-0.0857353
		l0.0034294-0.0068588l0.020576-0.0857315v-0.0068588l0.020576-0.0857315l0.0034294-0.0102882l0.0240053-0.0857353V39.252533
		l0.0240054-0.0857315v-0.0068588l0.0240053-0.0857353l0.0034294-0.0102882l0.0240053-0.0857315v-0.0102882L0.895057,38.882164
		l0.0034293-0.0102882l0.0240054-0.0823021l0.0034293-0.0068588l0.0240054-0.0857353l0.0034293-0.0085716l0.0240053-0.0857353
		l0.0034294-0.0102882l0.0240053-0.0836754l0.0034294-0.0068588l0.0274347-0.0857315l0.0034293-0.0068588l0.0240054-0.0823059
		l0.0034293-0.0068588l0.0240053-0.0833321l0.0034294-0.0068588l0.0240053-0.0850449l0.0034294-0.0102882l0.0274347-0.0836792
		l0.0034293-0.0102844l0.0274347-0.0823059v-0.0068588l0.0274347-0.0823021v-0.0102882l0.0274347-0.0823059l0.0034293-0.0068588
		l0.0274347-0.0823021l0.0034293-0.0102882l0.0274347-0.0823059l0.0034294-0.0102882l0.0274346-0.0823021l0.0034294-0.0102882
		l0.0274347-0.0823059l0.0034293-0.0068588l0.030864-0.0823021l0.0034294-0.0068588l0.0274347-0.0823059l0.0034293-0.0085716
		l0.0274347-0.0823059l0.0034293-0.0068588l0.0308641-0.0823021l0.0034293-0.0068588l0.030864-0.0823059v-0.0068588
		l0.030864-0.0823021l0.0034294-0.0068588l0.030864-0.0823059l0.0034294-0.0102882l0.030864-0.0823021l0.0034293-0.0068588
		l0.030864-0.0823059l0.0034294-0.0102882l0.0342933-0.0788727l0.0034294-0.0068588l0.0342934-0.0823059l0.0034292-0.0068588
		l0.0342934-0.0823021l0.0034294-0.0102882l0.0342934-0.0823021l0.0034292-0.0102882l0.0342934-0.0823059l0.0034294-0.0102882
		L1.882706,36.056736l0.0034292-0.0102882l0.0342934-0.0823059l0.0034294-0.0102882l0.0342934-0.0823021l0.0034292-0.0085754
		l0.0342934-0.0788727l0.0034294-0.0102882l0.0342935-0.0788765l0.0034289-0.0102882l0.0342937-0.0823021l0.0034294-0.0068588
		l0.0377226-0.0823059l0.0034294-0.0068588l0.0377226-0.0788727l0.0034294-0.0068588l0.0342932-0.0788765l0.0034294-0.0102882
		l0.0377226-0.0788727l0.0034294-0.0068588l0.0377226-0.0788765l0.0034294-0.0068588l0.0377231-0.0788727l0.0034289-0.0068588
		l0.0377231-0.0788765l0.0034289-0.0102882l0.0377231-0.0788727l0.0034294-0.0068588l0.0377226-0.0788765l0.0034294-0.0102882
		l0.0377226-0.0788727l0.0034294-0.0068588l0.0377226-0.0788765l0.0034294-0.0068588l0.0377226-0.0788727l0.0034294-0.0068588
		l0.0377226-0.0788765l0.0034294-0.0068588l0.041152-0.0754433l0.0034294-0.0068588l0.041152-0.0788765l0.0068588-0.0102882
		l0.041152-0.0788727l0.0034294-0.0068588l0.041152-0.0788765l0.0034294-0.0102882l0.041152-0.0754433l0.0034289-0.0068588
		l0.0411525-0.0754471l0.0034289-0.0068588l0.041152-0.0754433l0.0034294-0.0102882l0.041152-0.0754471l0.0068588-0.0068588
		l0.041152-0.0754433l0.0034294-0.0102882l0.041152-0.0754471l0.0068588-0.0068588l0.041152-0.0754433l0.0034294-0.0068588
		l0.041152-0.0754471l0.0068588-0.0102882l0.0445809-0.0754433l0.0034294-0.0068588l0.041152-0.0754471l0.0034294-0.0068588
		l0.0445814-0.0754433l0.0034294-0.0068588l0.0445814-0.0754471l0.0034294-0.0068588L3.388185,33.047493l0.0068583-0.0068588
		l0.0445814-0.0754471l0.0034294-0.0068588l0.0445814-0.0754471l0.0068588-0.006855l0.0445814-0.0754471l0.0034294-0.0068588
		l0.0445809-0.0754471l0.0068588-0.006855l0.0445814-0.0754471l0.0034294-0.0068588l0.0480108-0.0754471l0.0068583-0.0102882
		l0.0480108-0.0754433l0.0034294-0.0068588l0.0445814-0.0720177l0.0068588-0.0068588l0.0480108-0.0720139l0.0068583-0.0068588
		l0.0445814-0.0754471l0.0034294-0.0068588l0.0480108-0.0720139l0.0034294-0.0068588l0.0480103-0.0720177l0.0068588-0.0068588
		l0.0480108-0.0754433l0.0068588-0.0068588l0.0480103-0.0720177l0.0034294-0.0102882l0.0480108-0.0720139l0.0034294-0.0068588
		l0.0480108-0.0720177l0.0034289-0.0068588l0.0514402-0.0720158l0.0068588-0.0068588l0.0480103-0.0720158l0.0068588-0.0068588
		l0.0514402-0.0720158l0.0034294-0.0068588l0.0514398-0.0720158l0.0034294-0.0068588l0.0514402-0.0720158l0.0034289-0.0068588
		l0.0514402-0.0720158l0.0068588-0.0068588l0.0514398-0.0720158l0.0034294-0.0068588l0.0514402-0.0720158l0.0068588-0.0068588
		l0.0514398-0.0685883l0.0034294-0.0068588l0.0514402-0.0720158l0.0068583-0.0068588l0.0514402-0.0685863l0.0068588-0.0068588
		l0.0514398-0.0685863l0.0068588-0.0068588l0.0514398-0.0685863l0.0068588-0.0068588l0.0514402-0.0685863l0.0034294-0.0068588
		l0.0514398-0.0685863l0.0068588-0.0068588l0.0548692-0.0685863l0.0068588-0.0068588l0.0548692-0.0685883l0.0068588-0.0068569
		l0.0548697-0.0685883l0.0068583-0.0068588l0.0548697-0.0685863l0.0068583-0.0068588l0.0548697-0.0685863l0.0068588-0.0102882
		l0.0548692-0.0685863l0.0034294-0.0068588l0.0548692-0.0685863l0.0068588-0.0068588l0.0548692-0.0685863l0.0068588-0.0068588
		l0.0548697-0.0651569l0.0068583-0.0068588l0.0548697-0.0685883l0.0068583-0.0068569l0.0548697-0.0685883l0.0068588-0.0068588
		l0.0582986-0.0651569l0.0068583-0.0068588l0.0548697-0.0685863l0.0068588-0.0068588l0.0548692-0.0651569l0.0068588-0.0068588
		l0.0548692-0.0685863l0.0068588-0.0068588l0.0582986-0.0685863l0.0034294-0.0068588l0.0582986-0.0651588l0.0068588-0.0068569
		l0.0582986-0.0651588l0.0068588-0.0068588l0.0582986-0.0651569l0.0068588-0.0068588l0.0582986-0.0651569l0.0034294-0.0068588
		l0.0582986-0.0651569l0.0068588-0.0068588l0.0582986-0.0651569l0.0068588-0.0068588l0.0582986-0.0651588l0.0034294-0.0068569
		l0.0582986-0.0651588l0.0068588-0.0068588l0.061728-0.0651569l0.0034294-0.0068588l0.061728-0.0651569l0.0068588-0.0068588
		l0.0651574-0.0617275L6.77637,28.5893536l0.061728-0.0651569l0.0068583-0.0068588l0.0617285-0.0651588l0.0068583-0.0068569
		l0.061728-0.0617294l0.0068588-0.0068588l0.061728-0.0617275l0.0068588-0.0068588l0.061728-0.0617275l0.0068588-0.0068588
		l0.0651574-0.0617275l0.0068583-0.0068588l0.061728-0.0617294l0.0068588-0.0068569l0.061728-0.0617294l0.0068588-0.0068588
		l0.061728-0.0617275l0.0068588-0.0068588l0.061728-0.0617275l0.0068588-0.0068588l0.061728-0.0617275l0.0068583-0.0068588
		l0.0617285-0.0617294l0.0068583-0.0068588l0.061728-0.0617275l0.0068588-0.0068588l0.0651574-0.0582981l0.0068588-0.0068588
		l0.0651569-0.0582981l0.0068588-0.0068588l0.0651579-0.0617275l0.0068579-0.0068588l0.0651579-0.0617294l0.0068588-0.0034294
		l0.0651565-0.0582981l0.0068588-0.0034294l0.0651579-0.0582981l0.0068579-0.0068588l0.0651579-0.0583L8.175539,27.234766
		l0.0651569-0.0583l0.0068588-0.0068588l0.0651579-0.0582981l0.0068579-0.0034294l0.0685873-0.0582981l0.0068588-0.0068588
		l0.0685863-0.0582981l0.0068588-0.0068588l0.0685863-0.0583l0.0068588-0.0068588l0.0685873-0.0548687l0.0068579-0.0068588
		l0.0685873-0.0548687l0.0068588-0.0068588l0.0651569-0.0548706l0.0068588-0.0068588l0.0685863-0.0548687l0.0068588-0.0068588
		l0.0685873-0.0548687l0.0068588-0.0034294l0.0685863-0.0548687l0.0068588-0.0068588l0.0685863-0.0548706l0.0068588-0.0068588
		l0.0685863-0.0548687l0.0068588-0.0068588l0.0720167-0.0548687l0.0068579-0.0068588l0.0685873-0.0548706l0.0068588-0.0068588
		l0.0720158-0.0548687l0.0068588-0.0068588l0.0720158-0.0548687l0.0068588-0.0068588l0.0685863-0.0548687l0.0068588-0.0034294
		l0.0720167-0.0548706l0.0068579-0.0068588l0.0685873-0.0548687l0.0068588-0.0068588l0.0720158-0.0514393l0.0068588-0.0068588
		l0.0720158-0.0548706l0.0068588-0.0068588l0.0720158-0.0514393l0.0068588-0.0034294l0.0720158-0.0514393l0.0102882-0.0068588
		l0.0720167-0.0514412l0.0068579-0.0034294l0.0720167-0.0514393l0.0068588-0.0068588l0.0720158-0.0548687l0.0068588-0.0034294
		l0.0754452-0.0514412l0.0068588-0.0068588l0.0720158-0.0514393l0.0102882-0.0034294l0.0720158-0.0514393l0.0068588-0.0034294
		l0.0720158-0.0514412l0.0068588-0.0034294l0.0754461-0.0514393l0.0068579-0.0068588l0.0720167-0.0514393l0.0068588-0.0034294
		l0.0754452-0.0480118l0.0068588-0.0034294l0.0720158-0.0514393l0.0102882-0.0068588l0.0754452-0.0480118l0.0068588-0.0068588
		l0.0754452-0.0514393l0.0068588-0.0068588l0.0754452-0.0480099l0.0102882-0.0034294l0.0754452-0.0480118l0.0068588-0.0068588
		l0.0754452-0.0480099l0.0068588-0.0034294l0.0754452-0.0480099l0.0068588-0.0034294l0.0754452-0.0480118l0.0068588-0.0034294
		l0.0754461-0.0480099l0.0102873-0.0034294l0.0754461-0.0445824h0.0034285L46.1040077,3.4111614l0.0034294-0.0034292
		l0.0720139-0.0445814l0.0068588-0.0034294l0.0754471-0.0480106l0.0102882-0.0068588l0.0754433-0.0445814l0.0102882-0.0068586
		l0.0754471-0.0445814L46.443512,3.201972l0.0754433-0.0445814l0.0102882-0.0034294L46.60812,3.1093798l0.0068588-0.0068586
		l0.0754433-0.0445814l0.0102882-0.0034294l0.0754471-0.0445812l0.0068588-0.0034294l0.0788727-0.041152l0.0068588-0.0068588
		l0.0788765-0.041152l0.0068588-0.0068586l0.0754433-0.041152l0.0102882-0.0034294l0.0788765-0.041152l0.0068588-0.0068588
		l0.0754433-0.041152l0.0102882-0.0068586l0.0754471-0.041152l0.0102882-0.0068588l0.0754433-0.041152l0.0068588-0.0068586
		l0.0788765-0.041152l0.0068588-0.0034294l0.0754433-0.041152l0.0102882-0.0034294l0.0754471-0.041152l0.0102882-0.0034294
		l0.0788727-0.041152l0.0102882-0.0034294l0.0788765-0.041152l0.0068588-0.0034294l0.0788727-0.0377226l0.0102882-0.0034294
		l0.0788765-0.0377226l0.0102882-0.0034294l0.0754433-0.0377226l0.0102882-0.0034294l0.0788765-0.0377228l0.0068588-0.0034292
		l0.0788727-0.0377228l0.0102882-0.0034292l0.0788765-0.0377228l0.0102882-0.0068586l0.0788727-0.0377228l0.0102882-0.0034292
		l0.0788765-0.0377228l0.0102882-0.0034294l0.0788727-0.0342932l0.0102882-0.0034294l0.0788765-0.0342934l0.0068588-0.0068586
		l0.0788727-0.0342934l0.0068588-0.0034294l0.0788765-0.0342935l0.0102882-0.0068586l0.0788727-0.0342934l0.0102882-0.0034292
		l0.0788765-0.0342934l0.0102882-0.0034294l0.0788727-0.0342934L49.13554,1.8473839l0.0788765-0.0342934l0.0102882-0.0034294
		l0.0788727-0.0342934l0.0102882-0.0034292l0.0788765-0.0308642l0.0102882-0.0034292l0.0788727-0.0342934l0.0102882-0.0034294
		l0.0823059-0.0342933l0.0102882-0.0034294l0.0823021-0.0342933l0.0102882-0.0068587l0.0788765-0.030864l0.0068588-0.0034294
		l0.0823021-0.030864l0.0102882-0.0034293l0.0788765-0.030864l0.0068588-0.0034294l0.0823021-0.030864l0.0102882-0.0034293
		l0.0823059-0.0274347L50.1266174,1.45301l0.0823059-0.030864l0.0102882-0.0034293l0.0823021-0.0308641l0.0102882-0.0034293
		l0.0823059-0.0274347l0.0102882-0.0034293l0.0823021-0.0274347l0.0102882-0.0034293l0.0788765-0.0274347l0.0102882-0.0034294
		l0.0823021-0.0274347l0.0102882-0.0034293l0.0788765-0.0274347l0.0102882-0.0034293l0.0823021-0.0274347l0.0068588-0.0034294
		l0.0823059-0.0274346l0.0102882-0.0034294l0.0823021-0.0274347l0.0102882-0.0034293l0.0823059-0.0274347l0.0102882-0.0034293
		l0.0823021-0.0240054l0.0068588-0.0034293l0.0823059-0.0240054l0.0102882-0.0034293l0.0823021-0.0240054h0.0102882
		l0.0823059-0.0240053l0.0102844-0.0034294l0.0823059-0.0240053l0.0068588-0.0034293l0.0823021-0.0240054l0.0068588-0.0034293
		l0.0823059-0.0240054l0.0102882-0.0034293l0.0823021-0.0240054l0.0102882-0.0034293l0.0823059-0.0240054l0.0102882-0.0034293
		l0.0823021-0.020576l0.0102882-0.0034294l0.0823059-0.020576l0.0068588-0.0034293l0.0823021-0.0240054l0.0082321-0.0034293
		l0.0857315-0.020576h0.0068588l0.0823059-0.0240054h0.0102882l0.0847054-0.020576l0.0102882-0.0034293l0.0857315-0.020576
		l0.0102882-0.0034294l0.0823021-0.020576h0.0102882l0.0857353-0.020576h0.0102882l0.0823021-0.020576l0.0102882-0.0034294
		l0.0823059-0.0171466l0.0102882-0.0034294l0.0823021-0.020576l0.0102882-0.0034293l0.0823059-0.0171467h0.0102882
		l0.0823021-0.0171467l0.0102882-0.0034293l0.0823059-0.0171467h0.0068588l0.0823021-0.0171467l0.0102882-0.0034293
		l0.0857353-0.0171467h0.0068588l0.0857315-0.0171466l0.0068588-0.0034294l0.0857353-0.0171467l0.0102844-0.0034293
		l0.0857353-0.0171467l0.0102882-0.0034294l0.0857315-0.0137174h0.0102882l0.0823059-0.0137173l0.0102882-0.0034294
		l0.0857315-0.0171467l0.0102882-0.0034294l0.0857353-0.0137173h0.0102882l0.0823021-0.0137174l0.0102882-0.0034294
		l0.0857353-0.0137174L54.3862,0.3316168l0.0823021-0.0137174h0.0068588l0.0823059-0.0137174h0.0102882l0.0857315-0.0137173
		l0.0102882-0.0034294l0.0857353-0.0137174h0.0102844l0.0857353-0.0137174h0.0102882l0.0857315-0.0137174h0.0102882
		l0.0857353-0.010288h0.0102882l0.0823021-0.010288h0.0102882l0.0857353-0.010288l0.0102882-0.0034293l0.0857315-0.010288
		l0.0068588-0.0034293l0.0857353-0.0068587h0.0102882l0.0823021-0.010288h0.0102882l0.0823059-0.010288h0.0102844
		l0.0857353-0.010288h0.0102882l0.0857315-0.010288h0.0102882l0.0823059-0.0068587h0.0102882l0.0857315-0.010288L55.991127,0.129286
		l0.0857353-0.0068587l0.0102882-0.0034293l0.0857315-0.0068587h0.0102882l0.084362-0.0068587h0.0102882l0.0857353-0.0068587
		h0.0102844l0.0857353-0.0034294l0.0102882-0.0034293l0.0857315-0.0068587l0.0068588-0.0034293l0.0857353-0.0034294h0.0102882
		l0.0857315-0.0068587h0.0068588l0.0857353-0.0034293h0.0102882l0.0857315-0.0034294h0.0102882l0.0857353-0.0034293h0.0102882
		l0.0857315-0.0034294l0.0102882-0.0034293L57.22089,0.0504113h0.0102882l0.0857315-0.0034294h0.0102882l0.0857315-0.0034293
		h0.0102882l0.0857353-0.0034294h0.0102882l0.0857315-0.0034293h0.0068588l0.0857353-0.0034294h0.106308l0.0857353-0.0034293
		h0.1989021L58.1066856,0z M58.027813,9.2592096h-0.0562439L57.915329,9.2598963h-0.0558968l-0.0583,0.0013714l-0.0583,0.0013714
		L57.684536,9.2643538l-0.0583,0.0034294l-0.0583,0.0034294L57.5096397,9.274642l-0.0548706,0.0034294l-0.0583,0.0034294
		l-0.0548668,0.0034294l-0.0548706,0.0034294l-0.0548706,0.0034294l-0.0582962,0.0034294l-0.0548706,0.0034285l-0.0583,0.0068588
		l-0.0582962,0.0068588l-0.0548706,0.0068588l-0.0583,0.0068588l-0.0582962,0.0068588l-0.0583,0.0068579l-0.0548706,0.0068588
		l-0.0582962,0.0068588l-0.0548706,0.0068588l-0.0548706,0.0068588L56.491127,9.3740931l-0.0548706,0.0068588l-0.0548706,0.0068579
		L56.326519,9.3946686l-0.0548706,0.0068588l-0.0583,0.0068588l-0.0548668,0.0102882L56.103611,9.4255323l-0.0583,0.0102882
		l-0.0548668,0.0102882l-0.0548706,0.0102882L55.880703,9.4666853l-0.0548706,0.0102873l-0.0548668,0.0102882L55.716095,9.4975491
		l-0.0548706,0.0068588l-0.0582962,0.0102873l-0.0548706,0.0102882l-0.0583,0.0102882l-0.0548668,0.0102882l-0.0548706,0.0102873
		l-0.0548706,0.0102882l-0.0548668,0.0137177l-0.0548706,0.0137177l-0.0548706,0.0137167l-0.0548668,0.0102882l-0.0548706,0.0102882
		l-0.0548706,0.0137167l-0.0548668,0.0137177l-0.0548706,0.0137177l-0.0548706,0.0137177l-0.0548668,0.0137167l-0.0548706,0.0137177
		l-0.0548706,0.0137177l-0.0548706,0.0137167l-0.0548668,0.0137177l-0.0548706,0.0137177l-0.0548706,0.0171461l-0.0548668,0.0137177
		l-0.0548706,0.0171461l-0.0514412,0.0171471l-0.0548668,0.0171471l-0.0548706,0.0171461l-0.0548706,0.0171471l-0.0548668,0.0171461
		l-0.0548706,0.0171471L53.9602737,9.933075L53.905407,9.9502211l-0.0548706,0.0205765l-0.0548706,0.0171461l-0.0548668,0.0171471
		l-0.0548706,0.0205765l-0.0548706,0.0171461l-0.0548668,0.0171471l-0.0514412,0.0171461l-0.0548706,0.0205765l-0.0548706,0.0205755
		l-0.0548668,0.0205765l-0.0514412,0.0205755L53.25383,10.179987l-0.0514374,0.0205765l-0.0514412,0.0205755l-0.0548706,0.0240059
		l-0.0548668,0.0205755l-0.0548706,0.0205765l-0.0548706,0.0205755l-0.0514374,0.0240049l-0.0514412,0.0205765l-0.0548706,0.0240049
		l-0.0514412,0.0240059l-0.0514374,0.0240049l-0.0514412,0.0240059l-0.0548706,0.0240049l-0.0514374,0.0240059l-0.0548706,0.0240049
		l-0.0514412,0.0240059l-0.0514374,0.0240049l-0.0514412,0.0240049l-0.0548706,0.0240059l-0.0514374,0.0240049l-0.0514412,0.0240059
		l-0.0514412,0.0274343l-0.0514412,0.0274343l-0.0514374,0.0240059l-0.0514412,0.0274343l-0.0514412,0.0240059l-0.0514374,0.0274343
		l-0.0514412,0.0274343l-0.0514412,0.0274353l-0.0514412,0.0274343l-0.0514374,0.0274343l-0.0514412,0.0308647l-0.0480118,0.0274343
		l-0.0514374,0.0274353l-0.0480118,0.0274343l-0.0514412,0.0308638l-0.0514374,0.0308638l-0.0514412,0.0308647l-0.0480118,0.0274343
		l-0.0514412,0.0308638l-0.048008,0.0308647l-0.0514412,0.0308638l-0.0514412,0.0308638l-0.0548668,0.0342932L16.542778,32.5426941
		l-0.0582981,0.0377197l-0.0548706,0.0342941L16.37817,32.6490021l-0.0514412,0.0342941l-0.0514393,0.0342941l-0.0514393,0.0342903
		l-0.0514412,0.0342941l-0.0514393,0.0342941l-0.0514412,0.0342941l-0.0514393,0.0342941L15.96665,32.9233475l-0.0514412,0.0342941
		l-0.0514393,0.0377235l-0.0480118,0.0342941l-0.0480099,0.0342941l-0.0514402,0.0342903l-0.0480108,0.0342941L15.620286,33.166832
		l-0.0480108,0.0342941l-0.0480099,0.0342941l-0.0480108,0.0342903l-0.0480108,0.0342941l-0.0480108,0.0377235l-0.0480108,0.0342941
		l-0.0480108,0.0377235l-0.0480108,0.0377197l-0.0480108,0.0377235l-0.0480099,0.0377235l-0.0480108,0.0377235l-0.0480108,0.0377235
		l-0.0445814,0.0377197l-0.0480108,0.0377235l-0.0480108,0.0377235l-0.0445814,0.0377235l-0.0480108,0.0377197l-0.0480108,0.0377235
		l-0.0445814,0.0377235l-0.0480108,0.0377235l-0.0445814,0.0377235l-0.0445814,0.0377197l-0.0445805,0.041153l-0.0445814,0.041153
		l-0.0445814,0.0377235l-0.0445814,0.0377197l-0.0445814,0.041153l-0.0445814,0.041153l-0.0445814,0.041153l-0.0445814,0.0411491
		l-0.0445814,0.041153l-0.0445814,0.041153l-0.0445814,0.041153l-0.0445814,0.041153l-0.0445814,0.0411491l-0.0445814,0.041153
		l-0.0445814,0.041153l-0.041152,0.041153l-0.0445814,0.0411491l-0.041152,0.0445824l-0.0445814,0.041153l-0.041152,0.0445824
		l-0.041152,0.0411491l-0.041152,0.0445824l-0.041152,0.041153l-0.041152,0.0445824l-0.041152,0.0445786l-0.0445814,0.0445824
		l-0.041152,0.041153l-0.041152,0.0445824l-0.041152,0.0445786l-0.041152,0.0445824l-0.0377235,0.0445824l-0.041152,0.0445824
		l-0.041152,0.0445786l-0.041152,0.0445824l-0.041152,0.0480118l-0.041152,0.0445786l-0.0377226,0.0445824l-0.0377226,0.0445824
		l-0.041152,0.0480118l-0.0377226,0.0445786l-0.041152,0.0445824l-0.0377226,0.0480118l-0.0377226,0.0445824l-0.0377235,0.048008
		l-0.0377226,0.0480118l-0.0377226,0.0480118l-0.0377226,0.048008l-0.0377226,0.0480118l-0.0377226,0.0480118l-0.0342932,0.0480118
		l-0.0377235,0.048008l-0.0377226,0.0480118l-0.0377226,0.0480118l-0.0377226,0.0480118l-0.0342932,0.048008l-0.0342932,0.0480118
		l-0.0342941,0.0480118l-0.0342932,0.0514374L12.18752,36.5995979l-0.0342932,0.0480118l-0.0342932,0.0514412l-0.0342941,0.048008
		l-0.0342932,0.0480118l-0.0342932,0.0480118l-0.0342932,0.048008l-0.0308638,0.0514412l-0.0342941,0.0514412l-0.0342932,0.0480118
		l-0.0342932,0.0514374l-0.0308638,0.0514412l-0.0308647,0.0480118l-0.0308638,0.0514374l-0.0308638,0.0514412l-0.0308638,0.0514412
		l-0.0308647,0.0514412l-0.0342932,0.0514374l-0.0342932,0.0514412l-0.0308638,0.0514412l-0.0308647,0.0514374l-0.0308638,0.0514412
		l-0.0308638,0.0514412l-0.0308647,0.0514374l-0.0308638,0.0514412l-0.0308638,0.0514412l-0.0308638,0.0514412l-0.0308647,0.0514374
		l-0.0308638,0.0514412l-0.0308638,0.0548706l-0.0308647,0.0514374l-0.0308638,0.0514412l-0.0308638,0.0548706l-0.0274343,0.0514374
		l-0.0274353,0.0548706l-0.0274343,0.0548706l-0.0274353,0.0548668l-0.0274343,0.0514412l-0.0274343,0.0514412l-0.0274353,0.0548706
		l-0.0274343,0.0514374l-0.0274343,0.0548706l-0.0240059,0.0514412l-0.0274343,0.0548668l-0.0274353,0.0548706l-0.0274343,0.0548706
		l-0.0274343,0.0548668l-0.0274353,0.0548706l-0.0240049,0.0548706l-0.0240059,0.0548668l-0.0240049,0.0548706l-0.0240049,0.0548706
		l-0.0240059,0.0548668l-0.0240049,0.0548706l-0.0240059,0.0548706l-0.0240049,0.0548668l-0.0240059,0.0548706l-0.0205755,0.0548706
		l-0.0240059,0.0548706l-0.0240049,0.0582962l-0.0240059,0.0548706l-0.0240049,0.0548706l-0.0240049,0.0548668l-0.0205765,0.0548706
		l-0.0240049,0.0583l-0.0240059,0.0548668l-0.0205755,0.0548706l-0.0205765,0.0583l-0.0205755,0.0548668l-0.0205765,0.0583
		l-0.0205755,0.0548706l-0.0205765,0.0582962l-0.0205755,0.0583l-0.0205765,0.0583l-0.0171471,0.0582962l-0.0205755,0.0548706
		l-0.0205765,0.0583l-0.0171461,0.0582962l-0.0171471,0.0548706l-0.0171461,0.0583l-0.0205765,0.0582962l-0.0171471,0.0548706
		l-0.0171461,0.0548706L9.9824562,41.054306l-0.0205755,0.0583l-0.0171471,0.0583l-0.0171461,0.0548668l-0.0171471,0.0583
		l-0.0171471,0.0583l-0.0171461,0.0582962l-0.0171471,0.0583l-0.0171471,0.0583l-0.0137167,0.0582962l-0.0137177,0.0583
		l-0.0171461,0.0583L9.783555,41.7504616l-0.0171471,0.0583l-0.0137167,0.0583l-0.0137177,0.0582962L9.725256,41.9870872
		l-0.0137167,0.0583l-0.0137177,0.0582962l-0.0137177,0.0583l-0.0137177,0.0583l-0.0137167,0.0582962l-0.0137177,0.0583
		l-0.0102882,0.0582962l-0.0137167,0.0583l-0.0102882,0.0583l-0.0102882,0.0617256L9.5880823,42.635231L9.577795,42.6969604
		l-0.0102882,0.0617256l-0.0102882,0.0583l-0.0102882,0.0583L9.536643,42.9370117l-0.0102882,0.0617294l-0.0102882,0.0583
		l-0.0102882,0.0582962l-0.0102873,0.0583l-0.0102882,0.0617294L9.478344,43.2970924l-0.0068588,0.0617294l-0.0068588,0.0583
		L9.454339,43.4788475l-0.0102882,0.0583L9.437192,43.598877l-0.0068588,0.0617256L9.4234743,43.722332l-0.0068588,0.0617256
		L9.4097576,43.845787l-0.0068588,0.0617294L9.39604,43.9658127l-0.0068588,0.0617294l-0.0068588,0.0617294l-0.0034294,0.0617256
		l-0.0068588,0.0617294L9.3651762,44.274456l-0.0034294,0.0617256l-0.0034294,0.0617294L9.354888,44.4596405l-0.0034294,0.0617256
		l-0.0034294,0.0617294l-0.0034294,0.0617256l-0.0034294,0.0617294L9.3377409,44.76828l-0.0034294,0.0617256l-0.0034294,0.0617294
		v0.0617294l-0.0034294,0.0617256l-0.0034285,0.0617294v0.0617294l-0.0034294,0.0617256v43.4839897l0.0034294,0.0617294v0.1851807
		l0.0034285,0.0583038L9.3308821,89.0513l0.0034294,0.0617294l0.0034294,0.0617294l0.0034294,0.0617294l0.0034294,0.0617294
		l0.0034294,0.0617218l0.0034294,0.0617294l0.0034294,0.0617294l0.0068588,0.0617294l0.0034294,0.0617294l0.0034285,0.0617294
		l0.0034294,0.0617218l0.0068588,0.0583038l0.0068588,0.0617294l0.0068588,0.0582962L9.39604,89.9703674l0.0068588,0.0582962
		l0.0068588,0.0582962l0.0068579,0.0583038l0.0068588,0.0582962l0.0068588,0.0617294l0.0068588,0.0582962l0.0068588,0.0582962
		l0.0068588,0.0617294l0.0068579,0.0617294l0.0068588,0.0582962l0.0068588,0.0617294L9.4817734,90.68367l0.0102882,0.0582962
		l0.0102873,0.0582962l0.0102882,0.0583038l0.0102882,0.0617218l0.0102882,0.0583038l0.0102873,0.0582962l0.0102882,0.0582962
		l0.0102882,0.0583038l0.0137177,0.0582962l0.0102873,0.0582962l0.0102882,0.0583038l0.0102882,0.0582962l0.0137177,0.0582962
		l0.0137167,0.0583038l0.0102882,0.0582962L9.660099,91.619873l0.0137167,0.0583038l0.0137177,0.0582962l0.0137177,0.0582962
		l0.0137167,0.0583038l0.0137177,0.0582962l0.0137177,0.0582962l0.0137167,0.0548706l0.0171471,0.0548706l0.0137177,0.0582962
		l0.0137167,0.0583038l0.0137177,0.0582962l0.0171471,0.0582962l0.0137167,0.0548706l0.0137177,0.0583038l0.0137177,0.054863
		l0.0171461,0.0583038l0.0137177,0.0548706l0.0171471,0.0582962l0.0171461,0.0582962l0.0171471,0.0548706l0.0171461,0.0582962
		l0.0171471,0.0583038l0.0171471,0.0548706l0.0171461,0.0582962l0.0205765,0.0548706l0.0205755,0.0548706l0.0205765,0.054863
		l0.0205755,0.0548706l0.0171471,0.0548706l0.0205765,0.0582962l0.0205755,0.0548706l0.0205765,0.0548706l0.0205755,0.0548706
		l0.0205765,0.0548706l0.0205755,0.0548706l0.0205765,0.054863l0.0205755,0.0548706l0.0205765,0.0548706l0.0205755,0.0548706
		l0.0240059,0.0548706l0.0240049,0.0548706l0.0205765,0.0548706l0.0205755,0.054863l0.0205765,0.0548706l0.0205755,0.0548706
		l0.0205765,0.0548706l0.0240049,0.0548706l0.0240059,0.0548706l0.0240049,0.054863l0.0240049,0.0548706l0.0240059,0.0548706
		l0.0240049,0.0548706l0.0240059,0.0548706l0.0240049,0.0548706l0.0240059,0.054863l0.0240049,0.0548706l0.0240059,0.0548706
		l0.0240049,0.0514374l0.0274343,0.0548706l0.0274353,0.051445l0.0274343,0.0548706l0.0274343,0.0514374l0.0274353,0.0514374
		l0.0274343,0.051445l0.0274353,0.0514374l0.0274343,0.0514374l0.0274343,0.051445l0.0308647,0.0514374l0.0274343,0.0514374
		l0.0274343,0.051445l0.0274353,0.0514374l0.0308638,0.0514374l0.0308638,0.051445l0.0274353,0.0514374l0.0274343,0.0514374
		l0.0274343,0.051445l0.0308647,0.0514374l0.0274343,0.0514374l0.0308638,0.0480118l0.0308647,0.051445l0.0308638,0.0480118
		l0.0308638,0.0514374l0.0308638,0.0514374l0.0308647,0.0480118l0.0308638,0.0480118l0.0308638,0.0480118l0.0308638,0.0480118
		l0.0308647,0.0514374l0.0308638,0.0514374l0.0342932,0.0480118l0.0308647,0.0480118l0.0308638,0.0514374l0.0308638,0.0480118
		l0.0308638,0.0480118l0.0342941,0.0480118l0.0342932,0.0480118l0.0342932,0.0514374l0.0342932,0.0480118l0.0342932,0.0480118
		l0.0342941,0.0480118l0.0342932,0.0480118l0.0342932,0.0480118l0.0342932,0.0480042l0.0342932,0.0480118l0.0377235,0.0480118
		l0.0377226,0.0480118l0.0342932,0.0480118l0.0342932,0.0480118l0.0342932,0.0480118l0.0342941,0.0480042l0.0377226,0.0445862
		l0.0377226,0.0445786l0.0377226,0.0480118l0.0377226,0.0445786l0.0377226,0.0480118l0.0377226,0.0445862l0.0377226,0.0445786
		l0.0377226,0.0445786l0.0377235,0.0445862l0.0377226,0.0445786l0.0377226,0.0445786l0.0377226,0.0445862l0.0377226,0.0445786
		l0.0377226,0.0445862l0.0377226,0.0445786l0.0377235,0.0445786l0.041152,0.0445862l0.041152,0.0445786l0.0377226,0.0445786
		l0.041152,0.041153l0.041152,0.0445862l0.041152,0.041153l0.041152,0.0445786l0.0377226,0.0445786l0.041152,0.0445862
		l0.041152,0.041153l0.041152,0.0411453l0.041152,0.041153l0.041152,0.041153l0.041152,0.0445862l0.041152,0.0411453
		l0.041152,0.041153l0.041152,0.041153l0.041152,0.041153l0.041152,0.041153l0.0445814,0.041153l0.041152,0.041153
		l0.041153,0.041153l0.0445814,0.041153l0.041152,0.0411453l0.041152,0.041153l0.0445814,0.041153l0.0445814,0.0377274
		l0.0445814,0.0377197l0.0445814,0.041153l0.0445805,0.041153l0.0445814,0.0377197l0.0445814,0.0377197l0.0445814,0.041153
		l0.0445814,0.041153l0.0445814,0.0377274l0.0480108,0.0377197l0.0480108,0.0377197l0.0480108,0.0377274l0.0445814,0.0377197
		l0.0445814,0.0377274l0.0480108,0.0377197l0.0445814,0.0377197l0.0480108,0.0342941l0.0445814,0.0377274l0.0480099,0.0377197
		l0.0480108,0.0377197l0.0480108,0.0377274l0.0445814,0.0342941l0.0480108,0.0377197l0.0480108,0.0342941l0.0480108,0.0377197
		l0.0480108,0.0377274l0.0480108,0.0342941l0.0480099,0.0342941l0.0514402,0.0342865l0.0480108,0.0342941l0.0480108,0.0342941
		l0.0480108,0.0342941l0.0480108,0.0342941l0.0480108,0.0342941l0.0480108,0.0342941l0.0514393,0.0342941l0.0514412,0.0308609
		l0.0514393,0.0342941l0.0480099,0.0342941l0.0514412,0.0342941l0.0514393,0.0342941l0.0480118,0.0308609l0.0514393,0.0308685
		l0.0514393,0.0308609l0.0514412,0.0308685l0.0514393,0.0308609l0.0514412,0.0308609l0.0548687,0.0308685l0.0514393,0.0308609
		l0.0514412,0.0308685l0.0582981,0.0342865l35.8983002,20.9875412l0.0445824,0.0274353l0.0377235,0.0205765l0.041153,0.0205765
		l0.0411491,0.0205765l0.041153,0.0205765l0.0377235,0.0240097l0.041153,0.0205765l0.0411491,0.0205688l0.041153,0.0205765
		l0.041153,0.0240097l0.041153,0.0205765l0.0411491,0.0205765l0.041153,0.0205765l0.041153,0.0205765l0.041153,0.0205765
		l0.0411491,0.0205765l0.041153,0.0205688l0.041153,0.0205765l0.0377235,0.0205765l0.0411491,0.0205765l0.041153,0.0205765
		l0.041153,0.0171509l0.041153,0.0205765l0.041153,0.0171432l0.0411491,0.0171509l0.041153,0.0171432l0.041153,0.0205765
		l0.041153,0.0205765l0.0411491,0.0171432l0.041153,0.0205765l0.041153,0.0171509l0.041153,0.0171432l0.0411491,0.0171509
		l0.041153,0.0171432l0.041153,0.0171509l0.041153,0.0171432l0.0411491,0.0171432l0.041153,0.0171509l0.041153,0.0171432
		l0.041153,0.0137177l0.0445786,0.0171509l0.041153,0.0171432l0.041153,0.0171509l0.041153,0.0171432l0.0411491,0.0171432
		l0.041153,0.0137177l0.041153,0.0171509l0.041153,0.0137177l0.041153,0.0137177l0.0445786,0.0137177l0.041153,0.0137177
		l0.0377235,0.0137177l0.0891609,0.0274353l0.0857353,0.0274277l0.0857315,0.0240097l0.0857353,0.0240021l0.0857315,0.0240097
		l0.0857353,0.0240021l0.0857315,0.0240097l0.0857353,0.0240021l0.0857315,0.0240097l0.0857353,0.0205688l0.0857315,0.0205765
		l0.0857353,0.0205765l0.0857315,0.0171509l0.0857353,0.0205765l0.0857315,0.0171432l0.0857353,0.0171509l0.0857315,0.0171432
		l0.0857353,0.0137177l0.0857315,0.0171509l0.0857353,0.01371l0.0857315,0.0137253l0.0891647,0.01371l0.0857315,0.0137177
		l0.0891647,0.0102921l0.0891609,0.0102844l0.0891647,0.0102921l0.0891609,0.0068588l0.0857353,0.0068588l0.0891609,0.0068588
		l0.0857353,0.0068588l0.0891609,0.0068588l0.0891647,0.0068588l0.0857315,0.0068588l0.0857353,0.0034256l0.0857315,0.0034332
		l0.0891647,0.0034256h0.4389534l0.0891647-0.0034256h0.0891609l0.0891647-0.0034332l0.0891609-0.0034256l0.0891647-0.0068588
		l0.0891609-0.0068588l0.0891647-0.0034332l0.0891609-0.0068588l0.0891647-0.0068588l0.0891609-0.0068588l0.0857315-0.0068588
		l0.0891647-0.0102844l0.0891609-0.0102921l0.0857353-0.0102844l0.0891609-0.0102921l0.0857353-0.0137177l0.0891609-0.0137177
		l0.0857353-0.01371l0.0891609-0.0137177l0.0857353-0.0137177l0.0857315-0.0171509l0.0857353-0.0137177l0.0891609-0.0171432
		l0.0857353-0.0171509l0.0857315-0.0205765l0.0857353-0.0171432l0.0857315-0.0205765l0.0857353-0.0205765l0.0857315-0.0205765
		l0.0857353-0.0205765l0.0857315-0.0240021l0.0857353-0.0240097l0.0857315-0.0240021l0.0857353-0.0240097l0.0891609-0.0274353
		l0.041153-0.01371l0.041153-0.0137177l0.041153-0.0137177l0.0445786-0.0137177l0.041153-0.0137177l0.0445824-0.0137177
		l0.041153-0.0137177l0.0411491-0.0137177l0.0445824-0.0137177l0.041153-0.0137177l0.041153-0.0137177l0.0445786-0.0171509
		l0.041153-0.01371l0.0445824-0.0137177l0.041153-0.0171509l0.0411491-0.0137177l0.041153-0.0137177l0.041153-0.0137177
		l0.0445824-0.0171432l0.041153-0.0137177l0.0411491-0.0171509l0.041153-0.0171432l0.041153-0.0171509l0.041153-0.0171432
		l0.0411491-0.0171432l0.041153-0.0171509l0.041153-0.0171432l0.041153-0.0171509l0.0411491-0.0171432l0.041153-0.0171509
		l0.041153-0.0205765l0.041153-0.0205765l0.0411491-0.0171432l0.041153-0.0205765l0.041153-0.0205765l0.041153-0.0171432
		l0.0411491-0.0205765l0.041153-0.0205765l0.041153-0.0205765l0.0377235-0.0205765l0.041153-0.0205765l0.0411491-0.0205765
		l0.041153-0.0205765l0.041153-0.0205765l0.041153-0.0205765l0.0411491-0.0205765l0.041153-0.0205765l0.041153-0.0205765
		l0.0377235-0.0205765l0.0411491-0.0205765l0.041153-0.0205688l0.0445824-0.0240097l39.7700233-22.1638031l0.0480042-0.0240021
		l0.0445862-0.0240097l0.041153-0.0240021l0.0411453-0.0240097l0.041153-0.0240021l0.041153-0.0274353l0.0445862-0.0240097
		l0.041153-0.0240021l0.0411453-0.0240021l0.041153-0.0240097l0.041153-0.0274353l0.041153-0.0274353l0.041153-0.0240021
		l0.041153-0.0240097l0.041153-0.0240021l0.041153-0.0274353l0.0411453-0.0274353l0.041153-0.0240021l0.041153-0.0274353
		l0.041153-0.0240097l0.0377197-0.0274353l0.0377274-0.0274277l0.0377197-0.0274353l0.0377274-0.0274353l0.0377197-0.0274353
		l0.041153-0.0274353l0.0377197-0.0274353l0.041153-0.0274353l0.0377274-0.0274353l0.0377197-0.0274353l0.0377197-0.0274353
		l0.0377274-0.0274353l0.0377197-0.0274353l0.041153-0.0274277l0.0377197-0.0308685l0.0377274-0.0274353l0.0377197-0.0308609
		l0.0377274-0.0274353l0.0377197-0.0308685l0.0377197-0.0308609l0.0377274-0.0308609l0.0377197-0.0274353l0.0377274-0.0274353
		l0.0377197-0.0308685l0.0342941-0.0308609l0.0377197-0.0308609l0.0377274-0.0308685l0.0342865-0.0274353l0.0377274-0.0308609
		l0.0377197-0.0342941l0.0342941-0.0308685l0.0377274-0.0308609l0.0342865-0.0308609l0.0342941-0.0308685l0.0342941-0.0342941
		l0.0377274-0.0308609l0.0342941-0.0342941l0.0342865-0.0308609l0.0342941-0.0342941l0.0342941-0.0342941l0.0342941-0.0308685
		l0.0342941-0.0342865l0.0342941-0.0308685l0.0342941-0.0342941l0.0342941-0.0342941l0.0342941-0.0342941l0.0342941-0.0342865
		l0.0308609-0.0342941l0.0342941-0.0342941l0.0308609-0.0342941l0.0342941-0.0342941l0.0342941-0.0342941l0.0342941-0.0342941
		l0.0308609-0.0342941l0.0308685-0.0342941l0.0308609-0.0342941l0.0308685-0.0342865l0.0342941-0.0342941l0.0308609-0.0342941
		l0.0308609-0.0342941l0.0308685-0.0342941l0.0308609-0.0342941l0.0308685-0.0342941l0.0308609-0.0342941l0.0308609-0.0342941
		l0.0308685-0.0377197l0.0308609-0.0377197l0.0308685-0.0377274l0.0308609-0.0342941l0.0308609-0.0342941l0.0308685-0.0342941
		l0.0308609-0.0377197l0.0308685-0.0342941l0.0308609-0.0377197l0.0274353-0.0342941l0.0274353-0.0377274l0.0274353-0.0377197
		l0.0274353-0.0342941l0.0308609-0.0377197l0.0274353-0.0377274l0.0274353-0.0377197l0.0274353-0.0377197l0.0274353-0.0377274
		l0.0274353-0.0377197l0.0274353-0.0377274l0.0274353-0.0377197l0.0274353-0.0377197l0.0274277-0.0377274l0.0274353-0.0377197
		l0.0274353-0.0377274l0.0274353-0.0377197l0.0240097-0.0377197l0.0240021-0.041153l0.0274353-0.041153l0.0274353-0.0377197
		l0.0240021-0.0377274l0.0240097-0.0377197l0.0274353-0.041153l0.0274353-0.0377274l0.0240021-0.0377197l0.0240021-0.041153
		l0.0240097-0.041153l0.0240021-0.041153l0.0240097-0.0411453l0.0240021-0.0377274l0.0240097-0.041153l0.0240021-0.041153
		l0.0240097-0.0377197l0.0240021-0.041153l0.0240021-0.041153l0.0240097-0.041153l0.0205765-0.0411453l0.0205765-0.041153
		l0.0240021-0.041153l0.0240097-0.041153l0.0205765-0.041153l0.0240021-0.041153l0.0240021-0.041153l0.0205765-0.041153
		l0.0205765-0.041153l0.0205765-0.0445786l0.0205765-0.041153l0.0240097-0.041153l0.0240021-0.041153l0.0205765-0.0411453
		l0.0205765-0.041153l0.0205765-0.041153l0.0205765-0.0445862l0.0205765-0.0411453l0.0205765-0.041153l0.0205765-0.0445862
		l0.0205688-0.041153l0.0205765-0.0411453l0.0205765-0.0445862l0.0205765-0.0445786l0.0205765-0.0445862l0.0205765-0.0411453
		l0.0171509-0.041153l0.0171432-0.0445862l0.0171509-0.0445786l0.0171432-0.0445786l0.0171432-0.041153l0.0171509-0.0445862
		l0.0171432-0.0445786l0.0171509-0.0445786l0.0171432-0.041153l0.0171509-0.0445862l0.0171432-0.0445786l0.0171509-0.0445786
		l0.0171432-0.0445862l0.0171432-0.0445786l0.0137177-0.0445862l0.0137177-0.0445786l0.0137177-0.0445786l0.0137177-0.0445862
		l0.0171509-0.0445786l0.0171432-0.0445786l0.0171509-0.0445862l0.0171432-0.0445786l0.0137177-0.0445786l0.0171509-0.0445862
		l0.0137177-0.0445786l0.01371-0.0445862l0.0171509-0.0445786l0.0137177-0.0445786l0.0137177-0.0445862l0.0137177-0.0445786
		l0.0137177-0.0445786l0.0102844-0.0445862l0.0137177-0.0445786l0.0137177-0.0445862l0.0137177-0.0445786l0.0137177-0.0445786
		l0.0102844-0.0445862l0.0102921-0.0480118l0.0137177-0.0445786l0.0102844-0.0445786l0.0102921-0.0480118l0.0137177-0.0445862
		l0.0102844-0.0445786l0.0102921-0.0445786l0.0102844-0.0445862l0.0102921-0.0480042l0.0102844-0.0445862l0.0102921-0.0445786
		l0.0068588-0.0480118l0.0102844-0.0480118l0.0102921-0.0445786l0.0068588-0.0480118l0.0102844-0.0445862l0.0102921-0.0480042
		l0.0102844-0.0480118l0.0102921-0.0445862l0.0102844-0.0480118l0.0068588-0.0480042l0.0102844-0.0480118l0.0068588-0.0445862
		l0.0102921-0.0445786l0.0068588-0.0480118l0.0068588-0.0480118l0.0068588-0.0480118l0.0068588-0.0480042l0.0068588-0.0480118
		l0.0068588-0.0480118l0.0068588-0.0480118l0.0034256-0.0480118l0.0068588-0.0445786l0.0034332-0.0480118l0.0068588-0.0480118
		l0.0068588-0.0445786l0.0068588-0.0480118l0.0034256-0.0480118l0.0034332-0.0480118l0.0034256-0.0480118l0.0034332-0.0480118
		l0.0068588-0.0480042l0.0034256-0.0480118l0.0034332-0.0480118l0.0034256-0.0480118l0.0034332-0.0480118l0.0034256-0.0480118
		l0.0034256-0.0480118l0.0034332-0.0480118l0.0034256-0.0480042l0.0034332-0.0480118l0.0034332-0.0480118l0.0034256-0.0480118
		v-0.0960236l0.0034256-0.0480118V42.9092369l-0.0034256-0.0421829l-0.0034256-0.0445824v-0.0445786l-0.0034332-0.0445824
		v-0.0445824l-0.0034332-0.0445824v-0.0445786l-0.0034256-0.0445824l-0.0034332-0.041153l-0.0034256-0.0445824l-0.0034256-0.0445786
		l-0.0034332-0.0445824l-0.0034256-0.041153l-0.0034332-0.0445824l-0.0034256-0.0411491l-0.0034332-0.0445824l-0.0068588-0.0445824
		l-0.0034256-0.041153l-0.0034332-0.0411491l-0.0068588-0.041153l-0.0034256-0.041153l-0.0068588-0.0445824l-0.0034332-0.0411491
		l-0.0068588-0.041153l-0.0068588-0.0445824l-0.0034256-0.0445824l-0.0034332-0.0411491l-0.0068588-0.0377235l-0.0137177-0.0901909
		l-0.0102844-0.0874481l-0.0137177-0.0891647l-0.0137177-0.0857315l-0.0171509-0.0857353l-0.0171432-0.0857315l-0.0137177-0.0857353
		l-0.0171432-0.0857315l-0.0205765-0.0857353l-0.0205765-0.0857315l-0.0205765-0.0857353l-0.0205765-0.0857315l-0.0205765-0.0857353
		l-0.0205765-0.0857315l-0.0205765-0.0857353l-0.0240021-0.0857315l-0.0240097-0.0857353l-0.0240021-0.0857315l-0.0274353-0.0857353
		l-0.0240097-0.0823021l-0.0274353-0.0823059l-0.0274277-0.0823021l-0.0274353-0.0823059l-0.0274353-0.0823021l-0.0308685-0.0823059
		l-0.0308609-0.0823021l-0.0308685-0.0788765l-0.0308609-0.0823059l-0.0308609-0.0823021l-0.0308685-0.0823059l-0.0342941-0.0788727
		l-0.0308609-0.0823059l-0.0342941-0.0788727l-0.0342941-0.0788765l-0.0342941-0.0788727l-0.0377197-0.0788765l-0.0342941-0.0788727
		l-0.0377197-0.0788765l-0.0377274-0.0788727l-0.0377197-0.0754471l-0.041153-0.0788765l-0.0377197-0.0788727l-0.041153-0.0788765
		l-0.041153-0.0754433l-0.041153-0.0754471l-0.041153-0.0754433l-0.041153-0.0754471l-0.041153-0.0754433l-0.0445786-0.0754471
		l-0.0445862-0.0754471l-0.0445786-0.0754433l-0.0480118-0.0754471l-0.0445786-0.0720139l-0.0445786-0.0720177l-0.0480118-0.0720139
		l-0.0480118-0.0720177l-0.0480118-0.0720177l-0.0480118-0.0720139l-0.0480118-0.0720177l-0.0480118-0.0720139l-0.0514374-0.0685883
		l-0.0514374-0.0685883l-0.051445-0.0685844l-0.0514374-0.0685883l-0.0514374-0.0685844l-0.0548706-0.0685883l-0.0548706-0.0685883
		l-0.0548706-0.0685844l-0.0548706-0.0685883l-0.0548706-0.065155l-0.0582962-0.0651588l-0.0548706-0.0651588l-0.0582962-0.065155
		l-0.0582962-0.0651588l-0.0583038-0.065155l-0.0582962-0.0651588l-0.0583038-0.0651588l-0.0617218-0.0617256l-0.0617294-0.0617294
		l-0.0617294-0.0617294l-0.0617294-0.0617256l-0.0617294-0.0617294l-0.065155-0.0617294l-0.065155-0.0617256l-0.0651627-0.0583
		l-0.065155-0.0583l-0.065155-0.0582962l-0.065155-0.0583l-0.0651627-0.0583l-0.0685883-0.0582962l-0.0685806-0.0548706
		l-0.0685883-0.0548706l-0.065155-0.0548668l-0.0720215-0.0583l-0.0308609-0.0240059l-0.0342941-0.0274353l-0.0342941-0.0274315
		l-0.0342941-0.0274353l-0.0342941-0.0274353l-0.0342941-0.0240059l-0.0342941-0.0274353l-0.0342865-0.0274353l-0.0377274-0.0274315
		l-0.0377197-0.0274353l-0.0342941-0.0274353l-0.0342941-0.0274353l-0.0342941-0.0274353l-0.0342941-0.0240059l-0.0342941-0.0274353
		l-0.0377197-0.0274315l-0.0342941-0.0240059l-0.0342941-0.0240059l-0.0377197-0.0274353l-0.0377274-0.0240059l-0.0377197-0.0240059
		l-0.0342941-0.0240059l-0.0377197-0.0240021l-0.0377274-0.0240059l-0.0377197-0.0240059l-0.0377274-0.0240059l-0.0377197-0.0240059
		L103.922287,34.02005l-0.0377274-0.0240059l-0.0377197-0.0240021l-0.0377274-0.0240059l-0.0377197-0.0205765l-0.0377197-0.0205765
		l-0.0445862-0.0240059l-38.8060303-22.767025l-0.0548706-0.0336075l-0.0497284-0.0274353l-0.0514374-0.0308638
		l-0.0514374-0.0308638l-0.050415-0.0284634l-0.0514374-0.0274353L64.5240021,10.90975l-0.0514374-0.0274353l-0.0514374-0.0274343
		l-0.051445-0.0274343l-0.0504074-0.0274353l-0.051445-0.0274343l-0.0514374-0.0274343l-0.0514374-0.0274353l-0.051445-0.0274343
		l-0.0514374-0.0274343l-0.0514374-0.0274353l-0.052475-0.0240049l-0.0514374-0.0274353l-0.0514374-0.0240049l-0.051445-0.0240059
		l-0.0514374-0.0274343l-0.053154-0.0240049l-0.0514412-0.0240059l-0.0514412-0.0240049l-0.0534973-0.0240059l-0.0514374-0.0240049
		l-0.0514412-0.0205765l-0.053154-0.0240049l-0.0521278-0.0240049l-0.0514374-0.0240059l-0.0531578-0.0205755l-0.0514374-0.0205765
		l-0.0548706-0.0205755l-0.0528107-0.0240059l-0.054184-0.0205755l-0.0548706-0.0240059l-0.0548706-0.0205755l-0.053154-0.0205765
		l-0.053154-0.0205755l-0.0538406-0.0205765l-0.0548706-0.0205765l-0.0548668-0.0205755l-0.0514412-0.0205765l-0.0514412-0.0171461
		L62.4828644,9.987258l-0.0548706-0.0205755l-0.0548706-0.0171471l-0.0514374-0.0171471l-0.0548706-0.0171461l-0.0548706-0.0171471
		L62.1605034,9.880949L62.1056366,9.863802L62.050766,9.8466549l-0.0548706-0.0171461L61.944458,9.8123617l-0.0548706-0.0171461
		l-0.0548706-0.0171471L61.77985,9.7609224l-0.0548706-0.0137177l-0.0548706-0.0171471L61.615242,9.716341L61.5603714,9.699194
		l-0.0548706-0.0137177L61.450634,9.6717596L61.3957634,9.658042l-0.0548706-0.0171471L61.286026,9.6271782l-0.0548706-0.0137177
		l-0.0548706-0.0102882L61.121418,9.5894547L61.0665474,9.575738l-0.0548706-0.0137177l-0.0548706-0.0102882l-0.0548668-0.0137167
		l-0.0548706-0.0102882l-0.0548706-0.0102882l-0.0548668-0.0137177L60.6824608,9.493434l-0.0548706-0.0102882l-0.0548668-0.0102882
		l-0.0548706-0.0102882L60.4629822,9.452282l-0.0548668-0.0102882l-0.0583-0.0102882l-0.0548706-0.0068588L60.240078,9.4179878
		L60.1852074,9.41113l-0.0548706-0.0068588L60.07547,9.3939829l-0.0548706-0.0102882l-0.0548706-0.0068588l-0.0582962-0.0102873
		L59.852562,9.3596897l-0.0548706-0.0102882l-0.0548668-0.0068588l-0.0548706-0.0068588L59.6330833,9.328826l-0.0548706-0.0068588
		l-0.0548668-0.0068588l-0.0583-0.0068588l-0.0548706-0.0034294l-0.0548668-0.0068588l-0.0548706-0.0068588L59.2455673,9.287673
		l-0.0548668-0.0034285l-0.0548706-0.0034294l-0.0548706-0.0034294l-0.0548668-0.0034294l-0.0583-0.0034294l-0.0583-0.0034294
		l-0.0548668-0.0034294l-0.0548706-0.0034294h-0.0548706l-0.0548668-0.0034294l-0.0548706-0.0034294h-0.0583l-0.0548668-0.0034294
		L58.4671097,9.246521l-0.0514412-0.0034285l-0.0548668-0.0034294h-0.1131706l-0.0548668-0.0034294h-0.1097412L58.027813,9.2592096z
		"/>
	<polygon fill="#D0F3DF" points="31.9305553,101.5906754 31.9305553,30.5279579 46.7981033,30.5279579 46.7981033,56.4125938 
		71.4605255,56.4125938 71.4605255,30.5279579 86.3712845,30.5279579 86.3712845,101.5906754 71.4605255,101.5906754 
		71.4605255,70.5188217 46.7981033,70.5188217 46.7981033,101.5906754 	"/>
</g>
</svg>
