<?xml version="1.0" encoding="utf-8"?>
<!-- Generator: Adobe Illustrator 20.0.0, SVG Export Plug-In . SVG Version: 6.00 Build 0)  -->
<svg version="1.1" id="Layer_1" xmlns="http://www.w3.org/2000/svg" xmlns:xlink="http://www.w3.org/1999/xlink" x="0px" y="0px"
	 viewBox="0 0 416 416" style="enable-background:new 0 0 416 416;" xml:space="preserve">
<style type="text/css">
	.st0{fill:#D0F3DF;}
</style>
<g>
	<path class="st0" d="M377.5,87.4c4.7-5.9,7.5-13.5,7.5-21.6c0-19.2-15.6-34.8-34.8-34.8c-8.2,0-15.7,2.8-21.6,7.5
		C294.6,14.3,252.9,0,208,0C93.1,0,0,93.1,0,208s93.1,208,208,208s208-93.1,208-208C416,163.1,401.7,121.4,377.5,87.4z M343.8,343.8
		c-17.6,17.6-38.2,31.5-61.1,41.2c-23.7,10-48.8,15.1-74.8,15.1c-25.9,0-51.1-5.1-74.8-15.1c-22.9-9.7-43.4-23.5-61.1-41.2
		c-17.6-17.6-31.5-38.2-41.2-61.1c-10-23.7-15.1-48.8-15.1-74.8c0-25.9,5.1-51.1,15.1-74.8C40.5,110.2,54.3,89.7,72,72
		s38.2-31.5,61.1-41.2c23.7-10,48.8-15.1,74.8-15.1c25.9,0,51.1,5.1,74.8,15.1c12.7,5.4,24.7,12.1,35.9,20
		c-2.1,4.5-3.3,9.5-3.3,14.9c0,19.2,15.6,34.8,34.8,34.8c5.3,0,10.3-1.2,14.9-3.3c7.9,11.2,14.6,23.2,20,35.9
		c10,23.7,15.1,48.8,15.1,74.8c0,25.9-5.1,51.1-15.1,74.8C375.3,305.6,361.5,326.2,343.8,343.8z"/>
	<circle class="st0" cx="208" cy="208" r="96.1"/>
</g>
</svg>
