<?xml version="1.0" encoding="utf-8"?>
<!-- Generator: Adobe Illustrator 20.0.0, SVG Export Plug-In . SVG Version: 6.00 Build 0)  -->
<svg version="1.1" id="Capa_1" xmlns="http://www.w3.org/2000/svg" xmlns:xlink="http://www.w3.org/1999/xlink" x="0px" y="0px"
	 viewBox="0 0 33.3 43.8" style="enable-background:new 0 0 33.3 43.8;" xml:space="preserve">
<style type="text/css">
	.st0{fill:#D0F3DF;}
	.st1{fill:#8CE2B1;}
</style>
<g id="surface1">
	<g>
		<rect x="9.4" y="27.1" class="st0" width="4.2" height="2.1"/>
		<rect x="9.4" y="22.9" class="st0" width="4.2" height="2.1"/>
		<rect x="9.4" y="31.3" class="st0" width="4.2" height="2.1"/>
		<rect x="15.6" y="22.9" class="st0" width="8.3" height="2.1"/>
		<rect x="15.6" y="31.3" class="st0" width="8.3" height="2.1"/>
		<path class="st0" d="M22.9,0H3.1C1.4,0,0,1.4,0,3.1v37.5c0,1.7,1.4,3.1,3.1,3.1h27.1c1.7,0,3.1-1.4,3.1-3.1V10.4L22.9,0z M26,35.4
			H7.3V20.8H24H26V35.4z"/>
		<rect x="15.6" y="27.1" class="st0" width="8.3" height="2.1"/>
	</g>
	<path class="st1" d="M33.3,10.4H22.9V0L33.3,10.4z"/>
</g>
</svg>
