<svg id="Capa_1" data-name="Capa 1" xmlns="http://www.w3.org/2000/svg" viewBox="0 0 34.81 10.19"><title>bool</title><path d="M6.89,7.27a2.38,2.38,0,0,1-.87,2A4,4,0,0,1,3.53,10h-3V.55H3.36a6.71,6.71,0,0,1,1.16.1,3,3,0,0,1,1,.36,2.06,2.06,0,0,1,.73.74A2.4,2.4,0,0,1,6.55,3,2,2,0,0,1,5.1,5,2.24,2.24,0,0,1,6.89,7.27ZM5.56,3a1.44,1.44,0,0,0-.21-.81,1.42,1.42,0,0,0-.53-.49,2.34,2.34,0,0,0-.71-.23,4.7,4.7,0,0,0-.75-.06H1.51V4.59H3.36a5,5,0,0,0,.79-.06,2,2,0,0,0,.7-.24,1.47,1.47,0,0,0,.51-.49A1.47,1.47,0,0,0,5.56,3ZM5.9,7.28a1.61,1.61,0,0,0-.63-1.42,3,3,0,0,0-1.74-.44h-2V9.12h2a2.88,2.88,0,0,0,1.74-.47A1.61,1.61,0,0,0,5.9,7.28Zm11-.66a4,4,0,0,1-.25,1.43,3.08,3.08,0,0,1-.71,1.1,3.36,3.36,0,0,1-1.12.72,3.93,3.93,0,0,1-1.45.26,3.88,3.88,0,0,1-1.44-.26,3.37,3.37,0,0,1-1.12-.72,3.08,3.08,0,0,1-.71-1.1,4,4,0,0,1-.25-1.43,4.06,4.06,0,0,1,.25-1.42,3.12,3.12,0,0,1,.71-1.13,3.34,3.34,0,0,1,1.12-.73,3.85,3.85,0,0,1,1.44-.26,3.9,3.9,0,0,1,1.45.26,3.33,3.33,0,0,1,1.12.73,3.12,3.12,0,0,1,.71,1.13,4.06,4.06,0,0,1,.25,1.42Zm-1,0a3.28,3.28,0,0,0-.17-1.06,2.46,2.46,0,0,0-.5-.85,2.36,2.36,0,0,0-.81-.58,2.81,2.81,0,0,0-2.13,0,2.28,2.28,0,0,0-.8.58,2.52,2.52,0,0,0-.5.85,3.42,3.42,0,0,0,0,2.13,2.39,2.39,0,0,0,.5.84,2.32,2.32,0,0,0,.8.55,2.91,2.91,0,0,0,2.13,0,2.4,2.4,0,0,0,.81-.55,2.33,2.33,0,0,0,.5-.84,3.27,3.27,0,0,0,.17-1.06Zm11.33,0A4,4,0,0,1,27,8.05a3.09,3.09,0,0,1-.71,1.1,3.37,3.37,0,0,1-1.12.72,4,4,0,0,1-1.45.26,3.9,3.9,0,0,1-1.44-.26,3.37,3.37,0,0,1-1.12-.72,3.09,3.09,0,0,1-.71-1.1,4,4,0,0,1-.25-1.43,4.08,4.08,0,0,1,.25-1.42,3.12,3.12,0,0,1,.71-1.13,3.34,3.34,0,0,1,1.12-.73,3.87,3.87,0,0,1,1.44-.26,3.92,3.92,0,0,1,1.45.26,3.34,3.34,0,0,1,1.12.73A3.12,3.12,0,0,1,27,5.2a4.08,4.08,0,0,1,.25,1.42Zm-1,0a3.31,3.31,0,0,0-.17-1.06,2.47,2.47,0,0,0-.5-.85,2.36,2.36,0,0,0-.81-.58,2.81,2.81,0,0,0-2.13,0,2.28,2.28,0,0,0-.8.58,2.53,2.53,0,0,0-.5.85,3.42,3.42,0,0,0,0,2.13,2.39,2.39,0,0,0,.5.84,2.32,2.32,0,0,0,.8.55,2.91,2.91,0,0,0,2.13,0,2.4,2.4,0,0,0,.81-.55,2.33,2.33,0,0,0,.5-.84,3.3,3.3,0,0,0,.17-1.06ZM35.33,10h-4V9.12h1.51V1.39H31.3V.55h2.51V9.12h1.52V10Zm-15.76.19,7.65-7.65.58.58-7.65,7.65-.58-.58Z" transform="translate(-0.52 -0.55)" fill="#d0f3df"/></svg>